<svg width="136" height="45" viewBox="0 0 136 45" fill="none" xmlns="http://www.w3.org/2000/svg">
<g filter="url(#filter0_d_15_9)">
<mask id="path-1-outside-1_15_9" maskUnits="userSpaceOnUse" x="9" y="9" width="118" height="27" fill="black">
<rect fill="white" x="9" y="9" width="118" height="27"/>
<path d="M23.248 10.544C24.08 10.544 24.688 10.6187 25.072 10.768C25.4773 10.896 25.7653 11.12 25.936 11.44C26.1707 11.9307 26.288 12.592 26.288 13.424V25.808C26.288 28.048 25.4773 30.032 23.856 31.76C22.2347 33.4667 20.1653 34.32 17.648 34.32C16.24 34.32 14.992 34.0107 13.904 33.392C12.9227 32.8587 12.24 32.3787 11.856 31.952L11.6 31.696C10.8533 30.9067 10.48 30.2347 10.48 29.68C10.48 29.104 10.8533 28.432 11.6 27.664C12.3467 26.896 13.008 26.512 13.584 26.512C14.16 26.512 14.8 26.864 15.504 27.568C16.208 28.272 16.9653 28.624 17.776 28.624C18.608 28.624 19.2907 28.3467 19.824 27.792C20.3573 27.2373 20.624 26.5013 20.624 25.584V13.616C20.624 12.336 20.8373 11.5147 21.264 11.152C21.7547 10.7467 22.416 10.544 23.248 10.544ZM29.1945 30.704C28.6398 30.0213 28.3625 29.4133 28.3625 28.88C28.3625 28.3253 28.8212 27.6 29.7385 26.704C30.2718 26.192 30.8372 25.936 31.4345 25.936C32.0318 25.936 32.8638 26.4693 33.9305 27.536C34.2292 27.8987 34.6558 28.2507 35.2105 28.592C35.7652 28.912 36.2772 29.072 36.7465 29.072C38.7305 29.072 39.7225 28.2613 39.7225 26.64C39.7225 26.1493 39.4452 25.744 38.8905 25.424C38.3572 25.0827 37.6852 24.8373 36.8745 24.688C36.0638 24.5387 35.1892 24.304 34.2505 23.984C33.3118 23.6427 32.4372 23.248 31.6265 22.8C30.8158 22.352 30.1332 21.648 29.5785 20.688C29.0452 19.7067 28.7785 18.5333 28.7785 17.168C28.7785 15.2907 29.4718 13.6587 30.8585 12.272C32.2665 10.864 34.1758 10.16 36.5865 10.16C37.8665 10.16 39.0292 10.3307 40.0745 10.672C41.1412 10.992 41.8772 11.3227 42.2825 11.664L43.0825 12.272C43.7438 12.8907 44.0745 13.4133 44.0745 13.84C44.0745 14.2667 43.8185 14.8533 43.3065 15.6C42.5812 16.6667 41.8345 17.2 41.0665 17.2C40.6185 17.2 40.0638 16.9867 39.4025 16.56C39.3385 16.5173 39.2105 16.4107 39.0185 16.24C38.8478 16.0693 38.6878 15.9307 38.5385 15.824C38.0905 15.5467 37.5145 15.408 36.8105 15.408C36.1278 15.408 35.5518 15.5787 35.0825 15.92C34.6345 16.24 34.4105 16.6987 34.4105 17.296C34.4105 17.872 34.6772 18.3413 35.2105 18.704C35.7652 19.0667 36.4478 19.312 37.2585 19.44C38.0692 19.568 38.9545 19.7707 39.9145 20.048C40.8745 20.304 41.7598 20.624 42.5705 21.008C43.3812 21.392 44.0532 22.064 44.5865 23.024C45.1412 23.9627 45.4185 25.1253 45.4185 26.512C45.4185 27.8987 45.1412 29.1253 44.5865 30.192C44.0318 31.2373 43.3065 32.048 42.4105 32.624C40.6825 33.7547 38.8372 34.32 36.8745 34.32C35.8718 34.32 34.9225 34.2027 34.0265 33.968C33.1305 33.712 32.4052 33.4027 31.8505 33.04C30.7198 32.3573 29.9305 31.696 29.4825 31.056L29.1945 30.704ZM47.441 10.512H65.233C65.9157 10.512 66.417 10.5973 66.737 10.768C67.057 10.9173 67.2703 11.1627 67.377 11.504C67.4837 11.8453 67.537 12.2933 67.537 12.848C67.537 13.4027 67.4837 13.8507 67.377 14.192C67.2703 14.512 67.089 14.736 66.833 14.864C66.449 15.056 65.905 15.152 65.201 15.152H59.089V31.248C59.089 31.7387 59.0677 32.1013 59.025 32.336C59.0037 32.5707 58.9077 32.848 58.737 33.168C58.5877 33.4667 58.3103 33.68 57.905 33.808C57.4997 33.936 56.9663 34 56.305 34C55.6437 34 55.1103 33.936 54.705 33.808C54.321 33.68 54.0437 33.4667 53.873 33.168C53.7237 32.848 53.6277 32.5707 53.585 32.336C53.5637 32.08 53.553 31.7067 53.553 31.216V15.152H47.409C46.7263 15.152 46.225 15.0773 45.905 14.928C45.585 14.7573 45.3717 14.5013 45.265 14.16C45.1583 13.8187 45.105 13.3707 45.105 12.816C45.105 12.2613 45.1583 11.824 45.265 11.504C45.3717 11.1627 45.553 10.928 45.809 10.8C46.193 10.608 46.737 10.512 47.441 10.512ZM78.0348 12.208L86.6748 30.064C87.0374 30.7893 87.2188 31.3333 87.2188 31.696C87.2188 32.464 86.6001 33.1573 85.3628 33.776C84.6374 34.1387 84.0614 34.32 83.6348 34.32C83.2294 34.32 82.8881 34.224 82.6108 34.032C82.3548 33.84 82.1628 33.6373 82.0347 33.424C81.9281 33.2107 81.7681 32.8907 81.5548 32.464L79.8908 29.008H71.0268L69.3628 32.464C69.1494 32.8907 68.9788 33.2 68.8508 33.392C68.7441 33.584 68.5521 33.7867 68.2748 34C68.0188 34.192 67.6774 34.288 67.2508 34.288C66.8454 34.288 66.2801 34.1067 65.5548 33.744C64.3174 33.1467 63.6988 32.464 63.6988 31.696C63.6988 31.3333 63.8801 30.7893 64.2428 30.064L72.8828 12.176C73.1174 11.6853 73.4694 11.2907 73.9388 10.992C74.4294 10.6933 74.9414 10.544 75.4748 10.544C76.6268 10.544 77.4801 11.0987 78.0348 12.208ZM75.4428 19.888L73.3308 24.272H77.5868L75.4428 19.888ZM106.92 30.032C107.24 30.8 107.4 31.3547 107.4 31.696C107.4 32.5067 106.738 33.1893 105.416 33.744C104.733 34.0427 104.178 34.192 103.752 34.192C103.346 34.192 103.005 34.096 102.728 33.904C102.472 33.6907 102.28 33.4773 102.152 33.264C101.938 32.8587 101.106 30.928 99.6555 27.472L98.6635 27.536H94.6315V31.152C94.6315 31.6427 94.6102 32.016 94.5675 32.272C94.5462 32.5067 94.4502 32.784 94.2795 33.104C93.9808 33.68 93.1488 33.968 91.7835 33.968C90.2902 33.968 89.4155 33.5733 89.1595 32.784C89.0315 32.4213 88.9675 31.8667 88.9675 31.12V13.36C88.9675 12.8693 88.9782 12.5067 88.9995 12.272C89.0422 12.016 89.1488 11.728 89.3195 11.408C89.6182 10.832 90.4502 10.544 91.8155 10.544H98.7275C100.605 10.544 102.429 11.2267 104.2 12.592C105.053 13.2533 105.757 14.1493 106.312 15.28C106.866 16.4107 107.144 17.6693 107.144 19.056C107.144 21.4667 106.344 23.4507 104.744 25.008C105.213 26.1387 105.938 27.8133 106.92 30.032ZM94.6315 21.872H98.7275C99.3462 21.872 99.9648 21.6373 100.584 21.168C101.202 20.6987 101.512 19.9947 101.512 19.056C101.512 18.1173 101.202 17.4133 100.584 16.944C99.9648 16.4533 99.3248 16.208 98.6635 16.208H94.6315V21.872ZM109.195 30.704C108.64 30.0213 108.363 29.4133 108.363 28.88C108.363 28.3253 108.821 27.6 109.739 26.704C110.272 26.192 110.837 25.936 111.435 25.936C112.032 25.936 112.864 26.4693 113.931 27.536C114.229 27.8987 114.656 28.2507 115.211 28.592C115.765 28.912 116.277 29.072 116.747 29.072C118.731 29.072 119.723 28.2613 119.723 26.64C119.723 26.1493 119.445 25.744 118.891 25.424C118.357 25.0827 117.685 24.8373 116.875 24.688C116.064 24.5387 115.189 24.304 114.251 23.984C113.312 23.6427 112.437 23.248 111.627 22.8C110.816 22.352 110.133 21.648 109.579 20.688C109.045 19.7067 108.779 18.5333 108.779 17.168C108.779 15.2907 109.472 13.6587 110.859 12.272C112.267 10.864 114.176 10.16 116.587 10.16C117.867 10.16 119.029 10.3307 120.075 10.672C121.141 10.992 121.877 11.3227 122.283 11.664L123.083 12.272C123.744 12.8907 124.075 13.4133 124.075 13.84C124.075 14.2667 123.819 14.8533 123.307 15.6C122.581 16.6667 121.835 17.2 121.067 17.2C120.619 17.2 120.064 16.9867 119.403 16.56C119.339 16.5173 119.211 16.4107 119.019 16.24C118.848 16.0693 118.688 15.9307 118.539 15.824C118.091 15.5467 117.515 15.408 116.811 15.408C116.128 15.408 115.552 15.5787 115.083 15.92C114.635 16.24 114.411 16.6987 114.411 17.296C114.411 17.872 114.677 18.3413 115.211 18.704C115.765 19.0667 116.448 19.312 117.259 19.44C118.069 19.568 118.955 19.7707 119.915 20.048C120.875 20.304 121.76 20.624 122.571 21.008C123.381 21.392 124.053 22.064 124.587 23.024C125.141 23.9627 125.419 25.1253 125.419 26.512C125.419 27.8987 125.141 29.1253 124.587 30.192C124.032 31.2373 123.307 32.048 122.411 32.624C120.683 33.7547 118.837 34.32 116.875 34.32C115.872 34.32 114.923 34.2027 114.027 33.968C113.131 33.712 112.405 33.4027 111.851 33.04C110.72 32.3573 109.931 31.696 109.483 31.056L109.195 30.704Z"/>
</mask>
<path d="M25.072 10.768L24.7096 11.7L24.7399 11.7118L24.7709 11.7216L25.072 10.768ZM25.936 11.44L26.8381 11.0085L26.8287 10.9888L26.8184 10.9694L25.936 11.44ZM23.856 31.76L24.581 32.4488L24.5853 32.4442L23.856 31.76ZM13.904 33.392L14.3983 32.5227L14.39 32.518L14.3815 32.5134L13.904 33.392ZM11.856 31.952L12.5993 31.283L12.5817 31.2635L12.5631 31.2449L11.856 31.952ZM11.6 31.696L10.8735 32.3832L10.8831 32.3933L10.8929 32.4031L11.6 31.696ZM11.6 27.664L10.883 26.9669L10.883 26.9669L11.6 27.664ZM15.504 27.568L14.7969 28.2751L14.7969 28.2751L15.504 27.568ZM19.824 27.792L20.5448 28.4851L20.5448 28.4851L19.824 27.792ZM21.264 11.152L20.6271 10.381L20.6164 10.3901L21.264 11.152ZM23.248 11.544C24.0562 11.544 24.5075 11.6214 24.7096 11.7L25.4344 9.836C24.8685 9.61588 24.1038 9.544 23.248 9.544V11.544ZM24.7709 11.7216C24.9729 11.7854 25.0271 11.8608 25.0536 11.9106L26.8184 10.9694C26.5036 10.3792 25.9818 10.0066 25.3731 9.81442L24.7709 11.7216ZM25.0339 11.8715C25.179 12.175 25.288 12.6697 25.288 13.424H27.288C27.288 12.5143 27.1623 11.6863 26.8381 11.0085L25.0339 11.8715ZM25.288 13.424V25.808H27.288V13.424H25.288ZM25.288 25.808C25.288 27.7781 24.5852 29.5213 23.1267 31.0758L24.5853 32.4442C26.3695 30.5427 27.288 28.3179 27.288 25.808H25.288ZM23.131 31.0713C21.7126 32.5643 19.9125 33.32 17.648 33.32V35.32C20.4182 35.32 22.7567 34.369 24.581 32.4487L23.131 31.0713ZM17.648 33.32C16.3912 33.32 15.3176 33.0454 14.3983 32.5227L13.4097 34.2613C14.6664 34.9759 16.0888 35.32 17.648 35.32V33.32ZM14.3815 32.5134C13.4241 31.993 12.8654 31.5787 12.5993 31.283L11.1127 32.621C11.6146 33.1786 12.4212 33.7243 13.4265 34.2706L14.3815 32.5134ZM12.5631 31.2449L12.3071 30.9889L10.8929 32.4031L11.1489 32.6591L12.5631 31.2449ZM12.3265 31.0088C11.6089 30.2503 11.48 29.8251 11.48 29.68H9.48C9.48 30.6442 10.0977 31.5631 10.8735 32.3832L12.3265 31.0088ZM11.48 29.68C11.48 29.5126 11.6121 29.0861 12.317 28.3611L10.883 26.9669C10.0946 27.7779 9.48 28.6954 9.48 29.68H11.48ZM12.317 28.3611C13.0215 27.6364 13.4332 27.512 13.584 27.512V25.512C12.5828 25.512 11.6718 26.1556 10.883 26.9669L12.317 28.3611ZM13.584 27.512C13.7573 27.512 14.1533 27.6315 14.7969 28.2751L16.2111 26.8609C15.4467 26.0965 14.5627 25.512 13.584 25.512V27.512ZM14.7969 28.2751C15.643 29.1212 16.6421 29.624 17.776 29.624V27.624C17.2886 27.624 16.773 27.4228 16.2111 26.8609L14.7969 28.2751ZM17.776 29.624C18.8555 29.624 19.8066 29.2529 20.5448 28.4851L19.1032 27.0989C18.7747 27.4405 18.3605 27.624 17.776 27.624V29.624ZM20.5448 28.4851C21.2909 27.7092 21.624 26.7068 21.624 25.584H19.624C19.624 26.2958 19.4238 26.7655 19.1032 27.0989L20.5448 28.4851ZM21.624 25.584V13.616H19.624V25.584H21.624ZM21.624 13.616C21.624 13.0225 21.6744 12.5897 21.7519 12.2914C21.8319 11.9834 21.9168 11.9095 21.9116 11.9139L20.6164 10.3901C20.1845 10.7571 19.9494 11.2753 19.8161 11.7886C19.6803 12.3116 19.624 12.9295 19.624 13.616H21.624ZM21.9009 11.923C22.1635 11.706 22.5762 11.544 23.248 11.544V9.544C22.2558 9.544 21.3458 9.78735 20.6271 10.381L21.9009 11.923ZM29.1945 30.704L28.4184 31.3346L28.4205 31.3372L29.1945 30.704ZM29.7385 26.704L29.0459 25.9826L29.0398 25.9886L29.7385 26.704ZM33.9305 27.536L34.7024 26.9003L34.6717 26.863L34.6376 26.8289L33.9305 27.536ZM35.2105 28.592L34.6864 29.4437L34.6985 29.4511L34.7108 29.4582L35.2105 28.592ZM38.8905 25.424L38.3514 26.2663L38.3708 26.2787L38.3908 26.2902L38.8905 25.424ZM36.8745 24.688L36.6933 25.6715L36.6933 25.6715L36.8745 24.688ZM34.2505 23.984L33.9088 24.9238L33.9183 24.9272L33.9278 24.9305L34.2505 23.984ZM29.5785 20.688L28.6999 21.1655L28.7061 21.177L28.7126 21.1883L29.5785 20.688ZM30.8585 12.272L31.5656 12.9791L31.5656 12.9791L30.8585 12.272ZM40.0745 10.672L39.7641 11.6226L39.7756 11.6264L39.7872 11.6298L40.0745 10.672ZM42.2825 11.664L41.6384 12.4289L41.6575 12.445L41.6774 12.4602L42.2825 11.664ZM43.0825 12.272L43.7657 11.5417L43.7283 11.5068L43.6876 11.4758L43.0825 12.272ZM43.3065 15.6L42.4818 15.0345L42.4796 15.0377L43.3065 15.6ZM39.4025 16.56L38.8478 17.392L38.8541 17.3962L38.8604 17.4003L39.4025 16.56ZM39.0185 16.24L38.3114 16.9471L38.3322 16.9679L38.3541 16.9874L39.0185 16.24ZM38.5385 15.824L39.1197 15.0103L39.0929 14.9911L39.0649 14.9737L38.5385 15.824ZM35.0825 15.92L35.6638 16.7338L35.6707 16.7287L35.0825 15.92ZM35.2105 18.704L34.6482 19.5309L34.6557 19.536L34.6633 19.541L35.2105 18.704ZM37.2585 19.44L37.1025 20.4278L37.1025 20.4278L37.2585 19.44ZM39.9145 20.048L39.637 21.0087L39.6469 21.0116L39.6568 21.0142L39.9145 20.048ZM42.5705 21.008L42.1424 21.9117L42.1424 21.9117L42.5705 21.008ZM44.5865 23.024L43.7123 23.5096L43.7188 23.5213L43.7256 23.5327L44.5865 23.024ZM44.5865 30.192L45.4699 30.6607L45.4737 30.6534L44.5865 30.192ZM42.4105 32.624L41.8697 31.7828L41.863 31.7872L42.4105 32.624ZM34.0265 33.968L33.7518 34.9295L33.7624 34.9326L33.7731 34.9354L34.0265 33.968ZM31.8505 33.04L32.3977 32.203L32.3827 32.1932L32.3674 32.1839L31.8505 33.04ZM29.4825 31.056L30.3017 30.4825L30.2802 30.4518L30.2565 30.4228L29.4825 31.056ZM29.9706 30.0734C29.474 29.4622 29.3625 29.076 29.3625 28.88H27.3625C27.3625 29.7506 27.8057 30.5805 28.4184 31.3346L29.9706 30.0734ZM29.3625 28.88C29.3625 28.8688 29.3725 28.7379 29.5517 28.4545C29.7244 28.1813 30.0098 27.8369 30.4372 27.4194L29.0398 25.9886C28.5499 26.4671 28.1473 26.9333 27.8613 27.3855C27.5819 27.8274 27.3625 28.3365 27.3625 28.88H29.3625ZM30.431 27.4254C30.8248 27.0474 31.1534 26.936 31.4345 26.936V24.936C30.5209 24.936 29.7189 25.3366 29.046 25.9826L30.431 27.4254ZM31.4345 26.936C31.4541 26.936 31.6172 26.9538 31.9668 27.1779C32.2996 27.3912 32.7173 27.737 33.2234 28.2431L34.6376 26.8289C34.077 26.2683 33.5454 25.8142 33.0462 25.4941C32.5638 25.1849 32.0123 24.936 31.4345 24.936V26.936ZM33.1586 28.1717C33.5487 28.6454 34.0713 29.0651 34.6864 29.4437L35.7346 27.7403C35.2403 27.4362 34.9097 27.1519 34.7024 26.9003L33.1586 28.1717ZM34.7108 29.4582C35.3643 29.8352 36.0492 30.072 36.7465 30.072V28.072C36.5051 28.072 36.166 27.9888 35.7102 27.7258L34.7108 29.4582ZM36.7465 30.072C37.8491 30.072 38.8618 29.8508 39.6113 29.2383C40.3994 28.5943 40.7225 27.6641 40.7225 26.64H38.7225C38.7225 27.2372 38.5496 27.5231 38.3457 27.6897C38.1032 27.8879 37.6279 28.072 36.7465 28.072V30.072ZM40.7225 26.64C40.7225 25.6824 40.1461 24.9939 39.3902 24.5578L38.3908 26.2902C38.5762 26.3972 38.6567 26.4853 38.6892 26.5327C38.7142 26.5692 38.7225 26.5964 38.7225 26.64H40.7225ZM39.4296 24.5817C38.7597 24.153 37.9571 23.8706 37.0557 23.7045L36.6933 25.6715C37.4133 25.8041 37.9546 26.0123 38.3514 26.2663L39.4296 24.5817ZM37.0557 23.7045C36.3015 23.5656 35.4746 23.3448 34.5732 23.0375L33.9278 24.9305C34.9038 25.2632 35.8262 25.5117 36.6933 25.6715L37.0557 23.7045ZM34.5922 23.0442C33.6987 22.7193 32.8719 22.3457 32.1102 21.9248L31.1428 23.6752C32.0024 24.1503 32.9249 24.566 33.9088 24.9238L34.5922 23.0442ZM32.1102 21.9248C31.4874 21.5806 30.9261 21.0215 30.4444 20.1877L28.7126 21.1883C29.3402 22.2745 30.1442 23.1234 31.1428 23.6752L32.1102 21.9248ZM30.4571 20.2105C30.0193 19.4049 29.7785 18.4033 29.7785 17.168H27.7785C27.7785 18.6634 28.071 20.0084 28.6999 21.1655L30.4571 20.2105ZM29.7785 17.168C29.7785 15.5688 30.3572 14.1876 31.5656 12.9791L30.1514 11.5649C28.5865 13.1298 27.7785 15.0126 27.7785 17.168H29.7785ZM31.5656 12.9791C32.7477 11.797 34.3814 11.16 36.5865 11.16V9.16C33.9702 9.16 31.7853 9.93102 30.1514 11.5649L31.5656 12.9791ZM36.5865 11.16C37.778 11.16 38.8339 11.3189 39.7641 11.6226L40.3849 9.72139C39.2245 9.34247 37.955 9.16 36.5865 9.16V11.16ZM39.7872 11.6298C40.8356 11.9444 41.4004 12.2285 41.6384 12.4289L42.9266 10.8991C42.3539 10.4168 41.4467 10.0396 40.3618 9.71417L39.7872 11.6298ZM41.6774 12.4602L42.4774 13.0682L43.6876 11.4758L42.8876 10.8678L41.6774 12.4602ZM42.3993 13.0023C42.6938 13.2778 42.8772 13.4979 42.9814 13.6626C43.0886 13.832 43.0745 13.8829 43.0745 13.84H45.0745C45.0745 13.3704 44.8951 12.9466 44.6716 12.5934C44.4451 12.2354 44.1325 11.8849 43.7657 11.5417L42.3993 13.0023ZM43.0745 13.84C43.0745 13.9379 42.9826 14.304 42.4818 15.0345L44.1312 16.1655C44.6544 15.4026 45.0745 14.5954 45.0745 13.84H43.0745ZM42.4796 15.0377C41.8133 16.0175 41.328 16.2 41.0665 16.2V18.2C42.341 18.2 43.349 17.3159 44.1334 16.1623L42.4796 15.0377ZM41.0665 16.2C40.9075 16.2 40.5514 16.1112 39.9446 15.7197L38.8604 17.4003C39.5763 17.8622 40.3295 18.2 41.0665 18.2V16.2ZM39.9572 15.728C39.9696 15.7362 39.9709 15.7379 39.9564 15.7266C39.9439 15.7169 39.925 15.7017 39.8987 15.6798C39.846 15.6358 39.7747 15.5742 39.6829 15.4926L38.3541 16.9874C38.5333 17.1466 38.7149 17.3035 38.8478 17.392L39.9572 15.728ZM39.7256 15.5329C39.5274 15.3347 39.3253 15.1571 39.1197 15.0103L37.9573 16.6377C38.0503 16.7042 38.1683 16.804 38.3114 16.9471L39.7256 15.5329ZM39.0649 14.9737C38.414 14.5708 37.6397 14.408 36.8105 14.408V16.408C37.3893 16.408 37.767 16.5225 38.0121 16.6743L39.0649 14.9737ZM36.8105 14.408C35.9549 14.408 35.1632 14.6248 34.4943 15.1113L35.6707 16.7287C35.9404 16.5325 36.3008 16.408 36.8105 16.408V14.408ZM34.5013 15.1063C33.7654 15.6319 33.4105 16.4078 33.4105 17.296H35.4105C35.4105 16.9895 35.5036 16.8481 35.6637 16.7337L34.5013 15.1063ZM33.4105 17.296C33.4105 18.2469 33.8794 19.0081 34.6482 19.5309L35.7728 17.8771C35.4749 17.6745 35.4105 17.4971 35.4105 17.296H33.4105ZM34.6633 19.541C35.3609 19.9971 36.1846 20.2828 37.1025 20.4278L37.4145 18.4522C36.711 18.3412 36.1694 18.1362 35.7577 17.867L34.6633 19.541ZM37.1025 20.4278C37.8645 20.5481 38.7086 20.7405 39.637 21.0087L40.192 19.0873C39.2004 18.8008 38.2739 18.5879 37.4145 18.4522L37.1025 20.4278ZM39.6568 21.0142C40.5644 21.2563 41.392 21.5563 42.1424 21.9117L42.9986 20.1043C42.1276 19.6917 41.1846 19.3517 40.1722 19.0818L39.6568 21.0142ZM42.1424 21.9117C42.7255 22.1879 43.2573 22.6906 43.7123 23.5096L45.4607 22.5384C44.849 21.4374 44.0368 20.5961 42.9986 20.1043L42.1424 21.9117ZM43.7256 23.5327C44.1676 24.2807 44.4185 25.2564 44.4185 26.512H46.4185C46.4185 24.9943 46.1148 23.6446 45.4474 22.5153L43.7256 23.5327ZM44.4185 26.512C44.4185 27.7628 44.1692 28.8269 43.6993 29.7306L45.4737 30.6534C46.1131 29.4237 46.4185 28.0345 46.4185 26.512H44.4185ZM43.7032 29.7233C43.2197 30.6343 42.606 31.3095 41.8697 31.7828L42.9513 33.4652C44.007 32.7865 44.8439 31.8403 45.4698 30.6607L43.7032 29.7233ZM41.863 31.7872C40.2888 32.8172 38.6323 33.32 36.8745 33.32V35.32C39.0421 35.32 41.0762 34.6921 42.958 33.4608L41.863 31.7872ZM36.8745 33.32C35.9503 33.32 35.0866 33.2119 34.2799 33.0006L33.7731 34.9354C34.7584 35.1934 35.7933 35.32 36.8745 35.32V33.32ZM34.3012 33.0065C33.4659 32.7678 32.8419 32.4934 32.3977 32.203L31.3033 33.877C31.9684 34.3119 32.7951 34.6562 33.7518 34.9295L34.3012 33.0065ZM32.3674 32.1839C31.2847 31.5303 30.6328 30.9555 30.3017 30.4825L28.6633 31.6295C29.2282 32.4365 30.1549 33.1844 31.3336 33.8961L32.3674 32.1839ZM30.2565 30.4228L29.9685 30.0708L28.4205 31.3372L28.7085 31.6892L30.2565 30.4228ZM66.737 10.768L66.2664 11.6504L66.2899 11.6629L66.3141 11.6742L66.737 10.768ZM67.377 11.504L66.4225 11.8023L66.4225 11.8023L67.377 11.504ZM67.377 14.192L68.3257 14.5082L68.3287 14.4993L68.3315 14.4903L67.377 14.192ZM66.833 14.864L66.3858 13.9696L66.3858 13.9696L66.833 14.864ZM59.089 15.152V14.152H58.089V15.152H59.089ZM59.025 32.336L58.0411 32.1571L58.0331 32.201L58.0291 32.2455L59.025 32.336ZM58.737 33.168L57.8546 32.6974L57.8485 32.709L57.8426 32.7208L58.737 33.168ZM54.705 33.808L54.3888 34.7567L54.3963 34.7592L54.4039 34.7616L54.705 33.808ZM53.873 33.168L52.9668 33.5909L52.9843 33.6283L53.0048 33.6641L53.873 33.168ZM53.585 32.336L52.5885 32.419L52.5925 32.4673L52.6011 32.5149L53.585 32.336ZM53.553 15.152H54.553V14.152H53.553V15.152ZM45.905 14.928L45.4344 15.8104L45.4579 15.8229L45.4821 15.8342L45.905 14.928ZM45.265 14.16L44.3105 14.4583L44.3105 14.4583L45.265 14.16ZM45.265 11.504L46.2137 11.8202L46.2167 11.8113L46.2195 11.8023L45.265 11.504ZM45.809 10.8L46.2562 11.6944L46.2562 11.6944L45.809 10.8ZM47.441 11.512H65.233V9.512H47.441V11.512ZM65.233 11.512C65.8724 11.512 66.1696 11.5987 66.2664 11.6504L67.2076 9.88565C66.6644 9.59593 65.9589 9.512 65.233 9.512V11.512ZM66.3141 11.6742C66.3583 11.6948 66.3753 11.712 66.3824 11.7202C66.3897 11.7286 66.4062 11.7502 66.4225 11.8023L68.3315 11.2057C68.1422 10.5999 67.7383 10.1318 67.1599 9.86182L66.3141 11.6742ZM66.4225 11.8023C66.4872 12.0092 66.537 12.3453 66.537 12.848H68.537C68.537 12.2414 68.4801 11.6814 68.3315 11.2057L66.4225 11.8023ZM66.537 12.848C66.537 13.3507 66.4872 13.6868 66.4225 13.8937L68.3315 14.4903C68.4801 14.0146 68.537 13.4546 68.537 12.848H66.537ZM66.4283 13.8758C66.4066 13.941 66.3873 13.9664 66.3838 13.9708C66.3819 13.9732 66.382 13.9726 66.384 13.971C66.3861 13.9693 66.3872 13.9689 66.3858 13.9696L67.2802 15.7584C67.8154 15.4908 68.1513 15.0315 68.3257 14.5082L66.4283 13.8758ZM66.3858 13.9696C66.2022 14.0614 65.8375 14.152 65.201 14.152V16.152C65.9725 16.152 66.6958 16.0506 67.2802 15.7584L66.3858 13.9696ZM65.201 14.152H59.089V16.152H65.201V14.152ZM58.089 15.152V31.248H60.089V15.152H58.089ZM58.089 31.248C58.089 31.7276 58.0669 32.0154 58.0411 32.1571L60.0089 32.5149C60.0684 32.1872 60.089 31.7497 60.089 31.248H58.089ZM58.0291 32.2455C58.0246 32.2952 57.9929 32.4383 57.8546 32.6974L59.6194 33.6386C59.8225 33.2577 59.9827 32.8462 60.0209 32.4265L58.0291 32.2455ZM57.8426 32.7208C57.8387 32.7285 57.8321 32.7403 57.8073 32.7594C57.7788 32.7813 57.7183 32.8183 57.6039 32.8544L58.2061 34.7616C58.7953 34.5755 59.3301 34.2179 59.6314 33.6152L57.8426 32.7208ZM57.6039 32.8544C57.3344 32.9395 56.9143 33 56.305 33V35C57.0184 35 57.665 34.9325 58.2061 34.7616L57.6039 32.8544ZM56.305 33C55.6957 33 55.2756 32.9395 55.0061 32.8544L54.4039 34.7616C54.945 34.9325 55.5916 35 56.305 35V33ZM55.0212 32.8593C54.827 32.7946 54.7688 32.72 54.7412 32.6719L53.0048 33.6641C53.3186 34.2133 53.815 34.5654 54.3888 34.7567L55.0212 32.8593ZM54.7792 32.7451C54.6505 32.4694 54.5908 32.2776 54.5689 32.1571L52.6011 32.5149C52.6646 32.8637 52.7968 33.2266 52.9668 33.5909L54.7792 32.7451ZM54.5815 32.253C54.5637 32.0392 54.553 31.699 54.553 31.216H52.553C52.553 31.7143 52.5636 32.1208 52.5885 32.419L54.5815 32.253ZM54.553 31.216V15.152H52.553V31.216H54.553ZM53.553 14.152H47.409V16.152H53.553V14.152ZM47.409 14.152C46.761 14.152 46.4422 14.0752 46.3279 14.0218L45.4821 15.8342C46.0078 16.0795 46.6916 16.152 47.409 16.152V14.152ZM46.3756 14.0456C46.2837 13.9966 46.2466 13.9484 46.2195 13.8617L44.3105 14.4583C44.4968 15.0542 44.8863 15.518 45.4344 15.8104L46.3756 14.0456ZM46.2195 13.8617C46.1548 13.6548 46.105 13.3187 46.105 12.816H44.105C44.105 13.4226 44.1619 13.9826 44.3105 14.4583L46.2195 13.8617ZM46.105 12.816C46.105 12.3089 46.1558 11.9938 46.2137 11.8202L44.3163 11.1878C44.1608 11.6542 44.105 12.2137 44.105 12.816H46.105ZM46.2195 11.8023C46.2445 11.7222 46.2674 11.6898 46.2723 11.6834C46.2746 11.6805 46.2738 11.6821 46.2693 11.6858C46.2648 11.6895 46.2599 11.6926 46.2562 11.6944L45.3618 9.90557C44.805 10.1839 44.4768 10.6738 44.3105 11.2057L46.2195 11.8023ZM46.2562 11.6944C46.4398 11.6026 46.8045 11.512 47.441 11.512V9.512C46.6695 9.512 45.9462 9.61339 45.3618 9.90557L46.2562 11.6944ZM78.0348 12.208L78.935 11.7724L78.9292 11.7608L78.0348 12.208ZM86.6748 30.064L85.7745 30.4996L85.7803 30.5112L86.6748 30.064ZM85.3628 33.776L84.9155 32.8816L84.9155 32.8816L85.3628 33.776ZM82.6108 34.032L82.0107 34.832L82.0259 34.8434L82.0415 34.8542L82.6108 34.032ZM82.0347 33.424L81.1403 33.8712L81.1575 33.9056L81.1773 33.9385L82.0347 33.424ZM81.5548 32.464L80.6537 32.8978L80.657 32.9045L80.6603 32.9112L81.5548 32.464ZM79.8908 29.008L80.7918 28.5742L80.5191 28.008H79.8908V29.008ZM71.0268 29.008V28.008H70.3984L70.1257 28.5742L71.0268 29.008ZM69.3628 32.464L70.2572 32.9112L70.2605 32.9045L70.2638 32.8978L69.3628 32.464ZM68.8508 33.392L68.0187 32.8373L67.9962 32.871L67.9766 32.9064L68.8508 33.392ZM68.2748 34L68.8748 34.8001L68.8845 34.7926L68.2748 34ZM65.5548 33.744L66.002 32.8495L65.9895 32.8434L65.5548 33.744ZM64.2428 30.064L65.1373 30.5113L65.1432 30.4989L64.2428 30.064ZM72.8828 12.176L73.7832 12.6109L73.7849 12.6075L72.8828 12.176ZM73.9388 10.992L73.4188 10.1378L73.4103 10.143L73.4019 10.1483L73.9388 10.992ZM75.4428 19.888L76.3411 19.4487L75.436 17.598L74.5418 19.454L75.4428 19.888ZM73.3308 24.272L72.4298 23.838L71.739 25.272H73.3308V24.272ZM77.5868 24.272V25.272H79.189L78.4851 23.8327L77.5868 24.272ZM77.1346 12.6436L85.7746 30.4996L87.5749 29.6284L78.9349 11.7724L77.1346 12.6436ZM85.7803 30.5112C86.1391 31.2287 86.2188 31.5882 86.2188 31.696H88.2188C88.2188 31.0785 87.9358 30.35 87.5692 29.6168L85.7803 30.5112ZM86.2188 31.696C86.2188 31.8511 86.0928 32.293 84.9155 32.8816L85.81 34.6704C87.1074 34.0217 88.2188 33.0769 88.2188 31.696H86.2188ZM84.9155 32.8816C84.2256 33.2265 83.8216 33.32 83.6348 33.32V35.32C84.3013 35.32 85.0492 35.0508 85.81 34.6704L84.9155 32.8816ZM83.6348 33.32C83.391 33.32 83.2587 33.2643 83.18 33.2098L82.0415 34.8542C82.5175 35.1837 83.0678 35.32 83.6348 35.32V33.32ZM83.2108 33.232C83.0299 33.0964 82.9376 32.9851 82.8922 32.9095L81.1773 33.9385C81.3879 34.2895 81.6796 34.5836 82.0107 34.832L83.2108 33.232ZM82.9292 32.9768C82.929 32.9764 82.9288 32.976 82.9286 32.9755C82.9283 32.9751 82.9281 32.9747 82.9279 32.9743C82.9277 32.9739 82.9275 32.9734 82.9273 32.973C82.9271 32.9726 82.9269 32.9722 82.9267 32.9718C82.9265 32.9713 82.9262 32.9709 82.926 32.9705C82.9258 32.9701 82.9256 32.9697 82.9254 32.9692C82.9252 32.9688 82.925 32.9684 82.9248 32.968C82.9246 32.9676 82.9243 32.9671 82.9241 32.9667C82.9239 32.9663 82.9237 32.9659 82.9235 32.9654C82.9233 32.965 82.9231 32.9646 82.9229 32.9642C82.9227 32.9637 82.9224 32.9633 82.9222 32.9629C82.922 32.9625 82.9218 32.962 82.9216 32.9616C82.8943 32.907 82.9463 33.0111 82.919 32.9565C82.9188 32.956 82.9186 32.9556 82.9184 32.9552C82.9182 32.9548 82.9179 32.9543 82.9177 32.9539C82.9175 32.9535 82.9173 32.953 82.9171 32.9526C82.9169 32.9522 82.9166 32.9517 82.9164 32.9513C82.913 32.9444 82.9173 32.953 82.9138 32.9461C82.8894 32.8973 82.9356 32.9896 82.9112 32.9408C82.911 32.9404 82.9108 32.94 82.9105 32.9395C82.9103 32.9391 82.9101 32.9386 82.9099 32.9382C82.9097 32.9377 82.9094 32.9373 82.9092 32.9369C82.909 32.9364 82.9088 32.936 82.9086 32.9355C82.905 32.9284 82.9094 32.9373 82.9059 32.9302C82.8952 32.9088 82.9139 32.9463 82.9032 32.9248C82.903 32.9244 82.9028 32.9239 82.9025 32.9235C82.9023 32.923 82.9021 32.9226 82.9019 32.9221C82.9 32.9185 82.9023 32.923 82.9005 32.9194C82.8969 32.9122 82.9014 32.9212 82.8978 32.914C82.8959 32.9103 82.8982 32.9149 82.8964 32.9112C82.8891 32.8966 82.9023 32.9231 82.895 32.9085C82.8948 32.908 82.8946 32.9076 82.8943 32.9071C82.8941 32.9066 82.8939 32.9062 82.8936 32.9057C82.8934 32.9053 82.8932 32.9048 82.893 32.9043C82.8927 32.9039 82.8925 32.9034 82.8923 32.903C82.8886 32.8956 82.8946 32.9076 82.8909 32.9002C82.8906 32.8997 82.8904 32.8993 82.8902 32.8988C82.8899 32.8983 82.8897 32.8979 82.8895 32.8974C82.8876 32.8937 82.8899 32.8983 82.8881 32.8946C82.8878 32.8941 82.8876 32.8937 82.8874 32.8932C82.8871 32.8927 82.8869 32.8923 82.8867 32.8918C82.8829 32.8843 82.889 32.8965 82.8853 32.889C82.8815 32.8814 82.8876 32.8937 82.8839 32.8861C82.8801 32.8786 82.8848 32.8881 82.881 32.8805C82.8772 32.8729 82.8834 32.8852 82.8796 32.8776C82.8793 32.8771 82.8791 32.8766 82.8789 32.8762C82.8786 32.8757 82.8784 32.8752 82.8782 32.8747C82.8666 32.8516 82.8868 32.8921 82.8753 32.869C82.8675 32.8535 82.8801 32.8787 82.8724 32.8632C82.8721 32.8627 82.8719 32.8622 82.8716 32.8617C82.8714 32.8612 82.8712 32.8607 82.8709 32.8603C82.8707 32.8598 82.8704 32.8593 82.8702 32.8588C82.8699 32.8583 82.8697 32.8578 82.8695 32.8573C82.8537 32.8259 82.8822 32.8829 82.8665 32.8515C82.8626 32.8436 82.8675 32.8534 82.8636 32.8455C82.8633 32.845 82.8631 32.8445 82.8628 32.8441C82.8626 32.8436 82.8623 32.8431 82.8621 32.8426C82.8618 32.8421 82.8616 32.8416 82.8613 32.8411C82.8611 32.8406 82.8608 32.8401 82.8606 32.8396C82.8405 32.7995 82.8776 32.8737 82.8576 32.8336C82.8536 32.8256 82.8586 32.8356 82.8546 32.8275C82.8543 32.827 82.8541 32.8265 82.8538 32.826C82.8535 32.8255 82.8533 32.825 82.853 32.8245C82.8528 32.824 82.8525 32.8235 82.8523 32.823C82.852 32.8225 82.8518 32.822 82.8515 32.8215C82.8189 32.7562 82.8811 32.8807 82.8485 32.8154C82.8402 32.7989 82.8536 32.8257 82.8454 32.8092C82.8451 32.8087 82.8449 32.8082 82.8446 32.8077C82.8444 32.8071 82.8441 32.8066 82.8438 32.8061C82.8436 32.8056 82.8433 32.8051 82.8431 32.8046C82.8428 32.8041 82.8426 32.8035 82.8423 32.803C82.842 32.8025 82.8418 32.802 82.8415 32.8015C82.8413 32.8009 82.841 32.8004 82.8407 32.7999C82.8405 32.7994 82.8402 32.7989 82.84 32.7983C82.8397 32.7978 82.8394 32.7973 82.8392 32.7968C82.835 32.7884 82.8402 32.7989 82.836 32.7905C82.8358 32.79 82.8355 32.7895 82.8353 32.7889C82.835 32.7884 82.8347 32.7879 82.8345 32.7874C82.8342 32.7868 82.8339 32.7863 82.8337 32.7858C82.8334 32.7853 82.8332 32.7847 82.8329 32.7842C82.8326 32.7837 82.8324 32.7832 82.8321 32.7826C82.8318 32.7821 82.8316 32.7816 82.8313 32.781C82.831 32.7805 82.8308 32.78 82.8305 32.7795C82.8302 32.7789 82.83 32.7784 82.8297 32.7779C82.8294 32.7773 82.8292 32.7768 82.8289 32.7763C82.8287 32.7757 82.8284 32.7752 82.8281 32.7747C82.8279 32.7741 82.8276 32.7736 82.8273 32.7731C82.8271 32.7725 82.8268 32.772 82.8265 32.7715C82.8263 32.7709 82.826 32.7704 82.8257 32.7699C82.8255 32.7693 82.8252 32.7688 82.8249 32.7683C82.8246 32.7677 82.8244 32.7672 82.8241 32.7667C82.8238 32.7661 82.8236 32.7656 82.8233 32.765C82.823 32.7645 82.8228 32.764 82.8225 32.7634C82.8222 32.7629 82.822 32.7624 82.8217 32.7618C82.8214 32.7613 82.8212 32.7607 82.8209 32.7602C82.8206 32.7597 82.8203 32.7591 82.8201 32.7586C82.8198 32.758 82.8195 32.7575 82.8193 32.757C82.819 32.7564 82.8187 32.7559 82.8185 32.7553C82.8182 32.7548 82.8179 32.7543 82.8176 32.7537C82.8174 32.7532 82.8171 32.7526 82.8168 32.7521C82.8166 32.7515 82.8163 32.751 82.816 32.7504C82.8157 32.7499 82.8155 32.7494 82.8152 32.7488C82.8149 32.7483 82.8146 32.7477 82.8144 32.7472C82.8141 32.7466 82.8138 32.7461 82.8136 32.7455C82.8133 32.745 82.813 32.7444 82.8127 32.7439C82.8125 32.7433 82.8122 32.7428 82.8119 32.7423C82.8116 32.7417 82.8114 32.7412 82.8111 32.7406C82.8108 32.7401 82.8105 32.7395 82.8103 32.739C82.81 32.7384 82.8097 32.7379 82.8094 32.7373C82.8092 32.7368 82.8089 32.7362 82.8086 32.7356C82.8083 32.7351 82.8081 32.7345 82.8078 32.734C82.8075 32.7334 82.8072 32.7329 82.807 32.7323C82.8067 32.7318 82.8064 32.7312 82.8061 32.7307C82.8058 32.7301 82.8056 32.7296 82.8053 32.729C82.805 32.7285 82.8047 32.7279 82.8045 32.7273C82.8042 32.7268 82.8039 32.7262 82.8036 32.7257C82.8033 32.7251 82.8031 32.7246 82.8028 32.724C82.8025 32.7234 82.8022 32.7229 82.8019 32.7223C82.8017 32.7218 82.8014 32.7212 82.8011 32.7207C82.8008 32.7201 82.8006 32.7195 82.8003 32.719C82.8 32.7184 82.7997 32.7179 82.7994 32.7173C82.7992 32.7167 82.7989 32.7162 82.7986 32.7156C82.7983 32.715 82.798 32.7145 82.7977 32.7139C82.7975 32.7134 82.7972 32.7128 82.7969 32.7122C82.7966 32.7117 82.7963 32.7111 82.7961 32.7105C82.7958 32.71 82.7955 32.7094 82.7952 32.7089C82.7949 32.7083 82.7946 32.7077 82.7944 32.7072C82.7941 32.7066 82.7938 32.706 82.7935 32.7055C82.789 32.6964 82.7964 32.7112 82.7918 32.7021C82.7915 32.7015 82.7912 32.7009 82.791 32.7003C82.7907 32.6998 82.7904 32.6992 82.7901 32.6986C82.7898 32.6981 82.7895 32.6975 82.7893 32.6969C82.789 32.6964 82.7887 32.6958 82.7884 32.6952C82.7792 32.6769 82.7959 32.7101 82.7867 32.6918C82.7864 32.6912 82.7861 32.6906 82.7858 32.6901C82.7855 32.6895 82.7852 32.6889 82.785 32.6883C82.7847 32.6878 82.7844 32.6872 82.7841 32.6866C82.7838 32.686 82.7835 32.6855 82.7832 32.6849C82.7694 32.6572 82.7954 32.7092 82.7815 32.6814C82.7812 32.6809 82.7809 32.6803 82.7806 32.6797C82.7803 32.6791 82.7801 32.6785 82.7798 32.678C82.7795 32.6774 82.7792 32.6768 82.7789 32.6762C82.7786 32.6756 82.7783 32.6751 82.778 32.6745C82.764 32.6465 82.7903 32.699 82.7763 32.671C82.776 32.6704 82.7757 32.6698 82.7754 32.6692C82.7751 32.6687 82.7748 32.6681 82.7745 32.6675C82.7742 32.6669 82.7739 32.6663 82.7736 32.6657C82.7734 32.6651 82.7731 32.6646 82.7728 32.664C82.7563 32.6311 82.7875 32.6933 82.771 32.6605C82.7707 32.6599 82.7704 32.6593 82.7701 32.6587C82.7698 32.6581 82.7695 32.6575 82.7692 32.6569C82.769 32.6563 82.7687 32.6557 82.7684 32.6552C82.7681 32.6546 82.7678 32.654 82.7675 32.6534C82.7485 32.6155 82.7846 32.6877 82.7657 32.6498C82.7654 32.6492 82.7651 32.6486 82.7648 32.6481C82.7645 32.6475 82.7642 32.6469 82.7639 32.6463C82.7636 32.6457 82.7633 32.6451 82.763 32.6445C82.7627 32.6439 82.7624 32.6433 82.7621 32.6427C82.7407 32.5997 82.7818 32.6821 82.7603 32.6391C82.76 32.6385 82.7597 32.6379 82.7595 32.6373C82.7592 32.6367 82.7589 32.6361 82.7586 32.6355C82.7583 32.6349 82.758 32.6343 82.7577 32.6337C82.7574 32.6331 82.7571 32.6325 82.7568 32.6319C82.7279 32.5742 82.7838 32.6861 82.7549 32.6283C82.7546 32.6277 82.7543 32.6271 82.754 32.6265C82.7537 32.6259 82.7534 32.6253 82.7531 32.6247C82.7528 32.6241 82.7525 32.6235 82.7522 32.6229C82.7519 32.6223 82.7516 32.6217 82.7513 32.6211C82.7222 32.5628 82.7787 32.6757 82.7495 32.6174C82.7492 32.6168 82.7489 32.6162 82.7486 32.6156C82.7483 32.615 82.748 32.6144 82.7477 32.6138C82.7474 32.6132 82.7471 32.6126 82.7468 32.612C82.7465 32.6114 82.7462 32.6108 82.7459 32.6101C82.714 32.5465 82.7758 32.6701 82.744 32.6065C82.7437 32.6059 82.7434 32.6052 82.7431 32.6046C82.7428 32.604 82.7425 32.6034 82.7422 32.6028C82.7419 32.6022 82.7416 32.6016 82.7413 32.601C82.741 32.6003 82.7406 32.5997 82.7403 32.5991C82.7057 32.5299 82.7731 32.6646 82.7385 32.5954C82.7382 32.5948 82.7379 32.5942 82.7376 32.5936C82.7373 32.5929 82.7369 32.5923 82.7366 32.5917C82.7363 32.5911 82.736 32.5905 82.7357 32.5899C82.7354 32.5892 82.7351 32.5886 82.7348 32.588C82.7345 32.5874 82.7342 32.5868 82.7338 32.5861C82.7335 32.5855 82.7332 32.5849 82.7329 32.5843C82.7326 32.5836 82.7323 32.583 82.732 32.5824C82.7317 32.5818 82.7314 32.5812 82.7311 32.5805C82.7307 32.5799 82.7304 32.5793 82.7301 32.5787C82.7298 32.578 82.7295 32.5774 82.7292 32.5768C82.7289 32.5762 82.7286 32.5755 82.7282 32.5749C82.7279 32.5743 82.7276 32.5737 82.7273 32.573C82.727 32.5724 82.7267 32.5718 82.7264 32.5712C82.726 32.5705 82.7257 32.5699 82.7254 32.5693C82.7251 32.5686 82.7248 32.568 82.7245 32.5674C82.7242 32.5668 82.7238 32.5661 82.7235 32.5655C82.7232 32.5649 82.7229 32.5642 82.7226 32.5636C82.7223 32.563 82.722 32.5623 82.7216 32.5617C82.7213 32.5611 82.721 32.5604 82.7207 32.5598C82.7204 32.5592 82.7201 32.5585 82.7197 32.5579C82.7194 32.5573 82.7191 32.5566 82.7188 32.556C82.7185 32.5554 82.7182 32.5547 82.7178 32.5541C82.7175 32.5535 82.7172 32.5528 82.7169 32.5522C82.7166 32.5516 82.7163 32.5509 82.7159 32.5503C82.7156 32.5497 82.7153 32.549 82.715 32.5484C82.7147 32.5477 82.7143 32.5471 82.714 32.5465C82.7137 32.5458 82.7134 32.5452 82.7131 32.5446C82.7127 32.5439 82.7124 32.5433 82.7121 32.5426C82.7118 32.542 82.7115 32.5414 82.7111 32.5407C82.7108 32.5401 82.7105 32.5394 82.7102 32.5388C82.6768 32.4721 82.7397 32.5978 82.7063 32.5311C82.706 32.5304 82.7057 32.5298 82.7054 32.5291C82.705 32.5285 82.7047 32.5279 82.7044 32.5272C82.7041 32.5266 82.7037 32.5259 82.7034 32.5253C82.7031 32.5246 82.7028 32.524 82.7024 32.5233C82.7021 32.5227 82.7018 32.522 82.7015 32.5214C82.7012 32.5207 82.7008 32.5201 82.7005 32.5194C82.7002 32.5188 82.6999 32.5181 82.6995 32.5175C82.6992 32.5168 82.6989 32.5162 82.6986 32.5155C82.6751 32.4686 82.7181 32.5546 82.6946 32.5077C82.6943 32.5071 82.694 32.5064 82.6937 32.5057C82.6933 32.5051 82.693 32.5044 82.6927 32.5038C82.6923 32.5031 82.692 32.5025 82.6917 32.5018C82.6914 32.5011 82.691 32.5005 82.6907 32.4998C82.6904 32.4992 82.69 32.4985 82.6897 32.4979C82.6894 32.4972 82.6891 32.4965 82.6887 32.4959C82.6884 32.4952 82.6881 32.4946 82.6877 32.4939C82.6874 32.4932 82.6871 32.4926 82.6867 32.4919C82.6656 32.4496 82.7039 32.5263 82.6828 32.484C82.6824 32.4833 82.6821 32.4826 82.6818 32.482C82.6814 32.4813 82.6811 32.4807 82.6808 32.48C82.6804 32.4793 82.6801 32.4787 82.6798 32.478C82.6794 32.4773 82.6791 32.4767 82.6788 32.476C82.6784 32.4753 82.6781 32.4747 82.6778 32.474C82.6774 32.4733 82.6771 32.4726 82.6768 32.472C82.6764 32.4713 82.6761 32.4706 82.6758 32.47C82.6754 32.4693 82.6751 32.4686 82.6748 32.468C82.664 32.4465 82.6815 32.4814 82.6707 32.4599C82.6704 32.4592 82.6701 32.4585 82.6697 32.4579C82.6694 32.4572 82.669 32.4565 82.6687 32.4558C82.6684 32.4552 82.668 32.4545 82.6677 32.4538C82.6674 32.4531 82.667 32.4525 82.6667 32.4518C82.6663 32.4511 82.666 32.4504 82.6657 32.4498C82.6653 32.4491 82.665 32.4484 82.6646 32.4477C82.6643 32.447 82.664 32.4464 82.6636 32.4457C82.6633 32.445 82.6629 32.4443 82.6626 32.4436C82.6544 32.4273 82.6667 32.4518 82.6585 32.4355C82.6582 32.4348 82.6578 32.4341 82.6575 32.4334C82.6571 32.4327 82.6568 32.432 82.6565 32.4314C82.6561 32.4307 82.6558 32.43 82.6554 32.4293C82.6551 32.4286 82.6547 32.4279 82.6544 32.4272C82.6541 32.4265 82.6537 32.4259 82.6534 32.4252C82.653 32.4245 82.6527 32.4238 82.6523 32.4231C82.652 32.4224 82.6517 32.4217 82.6513 32.421C82.651 32.4204 82.6506 32.4197 82.6503 32.419C82.6448 32.4079 82.6516 32.4217 82.6461 32.4107C82.6458 32.41 82.6454 32.4093 82.6451 32.4086C82.6447 32.4079 82.6444 32.4072 82.644 32.4065C82.6437 32.4058 82.6433 32.4051 82.643 32.4044C82.6426 32.4037 82.6423 32.403 82.642 32.4023C82.6416 32.4016 82.6413 32.4009 82.6409 32.4002C82.6406 32.3995 82.6402 32.3988 82.6399 32.3981C82.6385 32.3954 82.6392 32.3968 82.6378 32.394C82.635 32.3883 82.6364 32.3912 82.6336 32.3855C82.6222 32.3628 82.628 32.3744 82.6165 32.3515C82.6162 32.3508 82.6158 32.35 82.6154 32.3493C82.6151 32.3486 82.6147 32.3479 82.6144 32.3472C82.6043 32.327 82.6223 32.363 82.6122 32.3429C82.6119 32.3421 82.6115 32.3414 82.6111 32.3407C82.6108 32.34 82.6104 32.3393 82.6101 32.3385C82.6097 32.3378 82.6093 32.3371 82.609 32.3364C82.6086 32.3357 82.6082 32.3349 82.6079 32.3342C82.5962 32.3109 82.6109 32.3401 82.5992 32.3168C82.5988 32.3161 82.5984 32.3153 82.5981 32.3146C82.5977 32.3139 82.5974 32.3131 82.597 32.3124C82.5966 32.3117 82.5963 32.3109 82.5959 32.3102C82.5955 32.3095 82.5952 32.3087 82.5948 32.308C82.5944 32.3073 82.5941 32.3066 82.5937 32.3058C82.5933 32.3051 82.593 32.3044 82.5926 32.3036C82.5922 32.3029 82.5919 32.3021 82.5915 32.3014C82.5911 32.3007 82.5908 32.2999 82.5904 32.2992C82.59 32.2985 82.5897 32.2977 82.5893 32.297C82.5889 32.2963 82.5885 32.2955 82.5882 32.2948C82.5878 32.2941 82.5874 32.2933 82.5871 32.2926C82.5867 32.2918 82.5863 32.2911 82.586 32.2904C82.5856 32.2896 82.5852 32.2889 82.5849 32.2881C82.5845 32.2874 82.5841 32.2867 82.5837 32.2859C82.5834 32.2852 82.583 32.2844 82.5826 32.2837C82.5823 32.283 82.5819 32.2822 82.5815 32.2815C82.5456 32.2097 82.6085 32.3354 82.5726 32.2636C82.5722 32.2628 82.5718 32.2621 82.5715 32.2613C82.5711 32.2606 82.5707 32.2598 82.5703 32.2591C82.57 32.2583 82.5696 32.2576 82.5692 32.2568C82.5688 32.2561 82.5685 32.2553 82.5681 32.2546C82.5677 32.2538 82.5673 32.2531 82.5669 32.2523C82.5666 32.2516 82.5662 32.2508 82.5658 32.2501C82.5654 32.2493 82.5651 32.2486 82.5647 32.2478C82.5643 32.247 82.5639 32.2463 82.5636 32.2455C82.5632 32.2448 82.5628 32.244 82.5624 32.2433C82.562 32.2425 82.5617 32.2418 82.5613 32.241C82.5609 32.2402 82.5605 32.2395 82.5601 32.2387C82.5598 32.238 82.5594 32.2372 82.559 32.2365C82.5586 32.2357 82.5583 32.2349 82.5579 32.2342C82.5575 32.2334 82.5571 32.2327 82.5567 32.2319C82.5564 32.2311 82.556 32.2304 82.5556 32.2296C82.5552 32.2289 82.5548 32.2281 82.5545 32.2273C82.5238 32.166 82.576 32.2703 82.5453 32.209C82.5449 32.2082 82.5445 32.2074 82.5441 32.2067C82.5437 32.2059 82.5433 32.2051 82.543 32.2044C82.5426 32.2036 82.5422 32.2028 82.5418 32.202C82.5414 32.2013 82.541 32.2005 82.5407 32.1997C82.5403 32.199 82.5399 32.1982 82.5395 32.1974C82.5391 32.1966 82.5387 32.1959 82.5383 32.1951C82.5379 32.1943 82.5376 32.1936 82.5372 32.1928C82.5368 32.192 82.5364 32.1912 82.536 32.1905C82.5356 32.1897 82.5352 32.1889 82.5349 32.1881C82.5345 32.1874 82.5341 32.1866 82.5337 32.1858C82.5333 32.185 82.5329 32.1843 82.5325 32.1835C82.5321 32.1827 82.5317 32.1819 82.5314 32.1811C82.531 32.1804 82.5306 32.1796 82.5302 32.1788C82.5298 32.178 82.5294 32.1772 82.529 32.1765C82.5286 32.1757 82.5282 32.1749 82.5278 32.1741C82.5275 32.1733 82.5271 32.1726 82.5267 32.1718C82.5263 32.171 82.5259 32.1702 82.5255 32.1694C82.5251 32.1687 82.5247 32.1679 82.5243 32.1671C82.5239 32.1663 82.5235 32.1655 82.5232 32.1647C82.5228 32.164 82.5224 32.1632 82.522 32.1624C82.5216 32.1616 82.5212 32.1608 82.5208 32.16C82.5204 32.1593 82.52 32.1585 82.5196 32.1577C82.5192 32.1569 82.5188 32.1561 82.5184 32.1553C82.5181 32.1545 82.5177 32.1537 82.5173 32.153C82.5169 32.1522 82.5165 32.1514 82.5161 32.1506C82.5157 32.1498 82.5153 32.149 82.5149 32.1482C82.5145 32.1474 82.5141 32.1466 82.5137 32.1459C82.5133 32.1451 82.5129 32.1443 82.5125 32.1435C82.5121 32.1427 82.5117 32.1419 82.5113 32.1411C82.5109 32.1403 82.5105 32.1395 82.5102 32.1387C82.5098 32.1379 82.5094 32.1371 82.509 32.1364C82.5086 32.1356 82.5082 32.1348 82.5078 32.134C82.5074 32.1332 82.507 32.1324 82.5066 32.1316C82.5062 32.1308 82.5058 32.13 82.5054 32.1292C82.505 32.1284 82.5046 32.1276 82.5042 32.1268C82.5038 32.126 82.5034 32.1252 82.503 32.1244C82.5026 32.1236 82.5022 32.1228 82.5018 32.122C82.5014 32.1212 82.501 32.1204 82.5006 32.1196C82.5002 32.1188 82.4998 32.118 82.4994 32.1172C82.499 32.1164 82.4986 32.1156 82.4982 32.1148C82.4934 32.1052 82.5006 32.1196 82.4958 32.11C82.4954 32.1092 82.495 32.1084 82.4946 32.1076C82.4942 32.1068 82.4938 32.106 82.4934 32.1052C82.493 32.1044 82.4926 32.1036 82.4922 32.1028C82.4918 32.102 82.4914 32.1012 82.491 32.1004C82.4845 32.0875 82.495 32.1084 82.4886 32.0955C82.4881 32.0947 82.4877 32.0939 82.4873 32.0931C82.4869 32.0923 82.4865 32.0915 82.4861 32.0907C82.4857 32.0899 82.4853 32.0891 82.4849 32.0883C82.4845 32.0875 82.4841 32.0866 82.4837 32.0858C82.4772 32.0728 82.4878 32.0939 82.4813 32.081C82.4809 32.0801 82.4805 32.0793 82.48 32.0785C82.4796 32.0777 82.4792 32.0769 82.4788 32.0761C82.4784 32.0753 82.478 32.0745 82.4776 32.0736C82.4772 32.0728 82.4768 32.072 82.4764 32.0712C82.4666 32.0516 82.4837 32.0859 82.4739 32.0663C82.4735 32.0655 82.4731 32.0647 82.4727 32.0638C82.4723 32.063 82.4719 32.0622 82.4715 32.0614C82.4711 32.0606 82.4707 32.0598 82.4703 32.0589C82.4698 32.0581 82.4694 32.0573 82.469 32.0565C82.4592 32.0367 82.4764 32.0713 82.4666 32.0515C82.4661 32.0507 82.4657 32.0499 82.4653 32.0491C82.4649 32.0483 82.4645 32.0474 82.4641 32.0466C82.4637 32.0458 82.4633 32.045 82.4629 32.0441C82.4624 32.0433 82.462 32.0425 82.4616 32.0417C82.45 32.0185 82.4707 32.0599 82.4591 32.0367C82.4587 32.0359 82.4583 32.0351 82.4579 32.0342C82.4575 32.0334 82.4571 32.0326 82.4567 32.0317C82.4562 32.0309 82.4558 32.0301 82.4554 32.0293C82.455 32.0284 82.4546 32.0276 82.4542 32.0268C82.4409 32.0002 82.465 32.0484 82.4517 32.0218C82.4513 32.021 82.4508 32.0201 82.4504 32.0193C82.45 32.0185 82.4496 32.0176 82.4492 32.0168L80.6603 32.9112C80.6607 32.912 80.6612 32.9129 80.6616 32.9137C80.662 32.9145 80.6624 32.9154 80.6628 32.9162C80.6632 32.917 80.6637 32.9179 80.6641 32.9187C80.6645 32.9195 80.6649 32.9204 80.6653 32.9212C80.6657 32.922 80.6661 32.9229 80.6666 32.9237C80.667 32.9245 80.6674 32.9253 80.6678 32.9262C80.6682 32.927 80.6686 32.9278 80.669 32.9287C80.6695 32.9295 80.6699 32.9303 80.6703 32.9311C80.6707 32.932 80.6711 32.9328 80.6715 32.9336C80.6719 32.9344 80.6723 32.9353 80.6728 32.9361C80.6732 32.9369 80.6736 32.9377 80.674 32.9386C80.6744 32.9394 80.6748 32.9402 80.6752 32.941C80.6756 32.9419 80.6761 32.9427 80.6765 32.9435C80.6769 32.9443 80.6773 32.9452 80.6777 32.946C80.6781 32.9468 80.6785 32.9476 80.6789 32.9484C80.6793 32.9493 80.6798 32.9501 80.6802 32.9509C80.6806 32.9517 80.681 32.9525 80.6814 32.9534C80.6818 32.9542 80.6822 32.955 80.6826 32.9558C80.683 32.9566 80.6834 32.9575 80.6839 32.9583C80.6843 32.9591 80.6847 32.9599 80.6851 32.9607C80.6855 32.9615 80.6859 32.9624 80.6863 32.9632C80.6867 32.964 80.6871 32.9648 80.6875 32.9656C80.6879 32.9664 80.6883 32.9673 80.6888 32.9681C80.6892 32.9689 80.6896 32.9697 80.69 32.9705C80.6904 32.9713 80.6908 32.9721 80.6912 32.973C80.6916 32.9738 80.692 32.9746 80.6924 32.9754C80.6928 32.9762 80.6932 32.977 80.6936 32.9778C80.694 32.9786 80.6944 32.9794 80.6948 32.9803C80.6952 32.9811 80.6957 32.9819 80.6961 32.9827C80.6965 32.9835 80.6969 32.9843 80.6973 32.9851C80.6977 32.9859 80.6981 32.9867 80.6985 32.9875C80.6989 32.9883 80.6993 32.9892 80.6997 32.99C80.7001 32.9908 80.7005 32.9916 80.7009 32.9924C80.7013 32.9932 80.7017 32.994 80.7021 32.9948C80.7025 32.9956 80.7029 32.9964 80.7033 32.9972C80.7037 32.998 80.7041 32.9988 80.7045 32.9996C80.7049 33.0004 80.7053 33.0012 80.7057 33.002C80.7061 33.0028 80.7065 33.0036 80.7069 33.0045C80.7073 33.0053 80.7077 33.0061 80.7081 33.0069C80.7085 33.0077 80.7089 33.0085 80.7093 33.0093C80.7097 33.0101 80.7101 33.0109 80.7105 33.0117C80.7109 33.0125 80.7113 33.0133 80.7117 33.0141C80.7121 33.0149 80.7125 33.0157 80.7129 33.0165C80.7133 33.0173 80.7137 33.0181 80.7141 33.0188C80.7149 33.0204 80.7157 33.022 80.7165 33.0236C80.7169 33.0244 80.7173 33.0252 80.7177 33.026C80.7181 33.0268 80.7185 33.0276 80.7189 33.0284C80.7193 33.0292 80.7197 33.03 80.7201 33.0308C80.7205 33.0316 80.7209 33.0324 80.7213 33.0332C80.7237 33.0379 80.7213 33.0332 80.7237 33.0379C80.7241 33.0387 80.7245 33.0395 80.7249 33.0403C80.7253 33.0411 80.7256 33.0419 80.726 33.0427C80.7264 33.0434 80.7268 33.0442 80.7272 33.045C80.7276 33.0458 80.728 33.0466 80.7284 33.0474C80.7323 33.0553 80.7268 33.0442 80.7308 33.0521C80.7312 33.0529 80.7316 33.0537 80.7319 33.0545C80.7323 33.0552 80.7327 33.056 80.7331 33.0568C80.7335 33.0576 80.7339 33.0584 80.7343 33.0592C80.7347 33.06 80.7351 33.0607 80.7355 33.0615C80.7441 33.0788 80.7292 33.049 80.7378 33.0662C80.7382 33.067 80.7386 33.0678 80.739 33.0686C80.7394 33.0693 80.7398 33.0701 80.7402 33.0709C80.7406 33.0717 80.7409 33.0725 80.7413 33.0732C80.7417 33.074 80.7421 33.0748 80.7425 33.0756C80.7526 33.0958 80.7347 33.06 80.7448 33.0802C80.7452 33.081 80.7456 33.0818 80.746 33.0826C80.7464 33.0833 80.7468 33.0841 80.7472 33.0849C80.7475 33.0857 80.7479 33.0864 80.7483 33.0872C80.7487 33.088 80.7491 33.0888 80.7495 33.0895C80.7611 33.1127 80.7402 33.071 80.7518 33.0942C80.7872 33.1649 80.721 33.0326 80.7564 33.1034C80.7687 33.128 80.7464 33.0834 80.7587 33.108C80.7916 33.1738 80.7281 33.0468 80.761 33.1126C80.7614 33.1134 80.7618 33.1141 80.7622 33.1149C80.7625 33.1157 80.7629 33.1164 80.7633 33.1172C80.7786 33.1477 80.7503 33.0912 80.7656 33.1218C80.7974 33.1854 80.7384 33.0673 80.7702 33.1309C80.7884 33.1673 80.7542 33.099 80.7724 33.1354C80.7728 33.1362 80.7732 33.1369 80.7736 33.1377C80.7739 33.1385 80.7743 33.1392 80.7747 33.14C80.7751 33.1407 80.7755 33.1415 80.7758 33.1422C80.7762 33.143 80.7766 33.1437 80.777 33.1445C80.7966 33.1837 80.7596 33.1098 80.7792 33.149C80.8076 33.2059 80.7553 33.1012 80.7837 33.158C80.8062 33.203 80.7635 33.1175 80.786 33.1625C80.7863 33.1632 80.7867 33.164 80.7871 33.1647C80.7875 33.1655 80.7878 33.1662 80.7882 33.167C80.7886 33.1677 80.7889 33.1685 80.7893 33.1692C80.7897 33.17 80.7901 33.1707 80.7904 33.1714C80.815 33.2205 80.7681 33.1268 80.7927 33.1759C80.8148 33.2202 80.775 33.1405 80.7971 33.1848C80.8237 33.238 80.7727 33.136 80.7993 33.1892C80.7997 33.19 80.8001 33.1907 80.8004 33.1914C80.8008 33.1922 80.8012 33.1929 80.8015 33.1936C80.8019 33.1944 80.8023 33.1951 80.8026 33.1958C80.803 33.1966 80.8034 33.1973 80.8037 33.198C80.8324 33.2553 80.7773 33.1452 80.8059 33.2024C80.822 33.2345 80.7943 33.1791 80.8103 33.2112C80.8107 33.2119 80.8111 33.2127 80.8114 33.2134C80.8118 33.2141 80.8121 33.2149 80.8125 33.2156C80.8129 33.2163 80.8132 33.217 80.8136 33.2178C80.814 33.2185 80.8143 33.2192 80.8147 33.2199C80.8151 33.2207 80.8154 33.2214 80.8158 33.2221C80.8161 33.2228 80.8165 33.2236 80.8169 33.2243C80.8172 33.225 80.8176 33.2257 80.8179 33.2265C80.8183 33.2272 80.8187 33.2279 80.819 33.2286C80.8291 33.2488 80.8133 33.2171 80.8234 33.2373C80.8237 33.238 80.8241 33.2387 80.8244 33.2394C80.8248 33.2402 80.8252 33.2409 80.8255 33.2416C80.8259 33.2423 80.8262 33.243 80.8266 33.2438C80.827 33.2445 80.8273 33.2452 80.8277 33.2459C80.828 33.2466 80.8284 33.2473 80.8287 33.248C80.8291 33.2488 80.8295 33.2495 80.8298 33.2502C80.8302 33.2509 80.8305 33.2516 80.8309 33.2523C80.8312 33.253 80.8316 33.2538 80.832 33.2545C80.8376 33.2659 80.8305 33.2516 80.8362 33.263C80.8366 33.2637 80.8369 33.2644 80.8373 33.2651C80.8376 33.2658 80.838 33.2666 80.8383 33.2673C80.8387 33.268 80.8391 33.2687 80.8394 33.2694C80.8398 33.2701 80.8401 33.2708 80.8405 33.2715C80.8408 33.2722 80.8412 33.2729 80.8415 33.2736C80.8419 33.2743 80.8422 33.275 80.8426 33.2757C80.8429 33.2764 80.8433 33.2771 80.8436 33.2779C80.844 33.2786 80.8443 33.2793 80.8447 33.28C80.845 33.2807 80.8454 33.2814 80.8458 33.2821C80.8461 33.2828 80.8465 33.2835 80.8468 33.2842C80.8472 33.2849 80.8475 33.2856 80.8479 33.2863C80.8482 33.287 80.8486 33.2877 80.8489 33.2884C80.8496 33.2898 80.8503 33.2912 80.851 33.2926C80.8514 33.2933 80.8517 33.294 80.8521 33.2947C80.8524 33.2954 80.8527 33.2961 80.8531 33.2968C80.8534 33.2975 80.8538 33.2982 80.8541 33.2988C80.8545 33.2995 80.8548 33.3002 80.8552 33.3009C80.858 33.3065 80.8545 33.2996 80.8573 33.3051C80.8576 33.3058 80.858 33.3065 80.8583 33.3072C80.8587 33.3079 80.859 33.3086 80.8593 33.3093C80.8597 33.3099 80.86 33.3106 80.8604 33.3113C80.8607 33.312 80.8611 33.3127 80.8614 33.3134C80.8642 33.3189 80.8669 33.3244 80.8697 33.3299C80.9052 33.4009 80.8362 33.263 80.8717 33.334C80.872 33.3347 80.8724 33.3353 80.8727 33.336C80.8731 33.3367 80.8734 33.3374 80.8738 33.3381C80.8833 33.3571 80.8663 33.3231 80.8758 33.3421C80.9076 33.4058 80.846 33.2826 80.8778 33.3462C80.8782 33.3469 80.8785 33.3476 80.8788 33.3482C80.8792 33.3489 80.8795 33.3496 80.8799 33.3503C80.8927 33.3759 80.869 33.3287 80.8819 33.3543C80.9108 33.4121 80.855 33.3006 80.8839 33.3584C80.8842 33.359 80.8846 33.3597 80.8849 33.3604C80.8852 33.361 80.8856 33.3617 80.8859 33.3624C80.9019 33.3945 80.8779 33.3464 80.8939 33.3784C80.9184 33.4274 80.8714 33.3333 80.8959 33.3824C80.8962 33.383 80.8966 33.3837 80.8969 33.3844C80.8972 33.385 80.8976 33.3857 80.8979 33.3863C80.9184 33.4273 80.8794 33.3494 80.8999 33.3903C80.9202 33.431 80.8815 33.3535 80.9018 33.3943C80.9022 33.3949 80.9025 33.3956 80.9028 33.3962C80.9032 33.3969 80.9035 33.3975 80.9038 33.3982C80.9248 33.4401 80.8848 33.3602 80.9058 33.4021C80.924 33.4387 80.8895 33.3695 80.9077 33.4061C80.9081 33.4067 80.9084 33.4074 80.9087 33.408C80.909 33.4087 80.9094 33.4093 80.9097 33.41C80.9358 33.4621 80.8914 33.3734 80.9175 33.4255C80.929 33.4487 80.9078 33.4062 80.9194 33.4294C80.9197 33.43 80.92 33.4307 80.9204 33.4313C80.9207 33.4319 80.921 33.4326 80.9213 33.4332C80.9502 33.4909 80.8944 33.3794 80.9233 33.4371C80.9335 33.4575 80.915 33.4205 80.9252 33.4409C80.9255 33.4415 80.9258 33.4422 80.9261 33.4428C80.9264 33.4435 80.9268 33.4441 80.9271 33.4447C80.9589 33.5084 80.8972 33.3849 80.929 33.4485C80.9293 33.4492 80.9296 33.4498 80.9299 33.4504C80.9303 33.4511 80.9306 33.4517 80.9309 33.4523C80.9312 33.453 80.9315 33.4536 80.9318 33.4542C80.9322 33.4549 80.9325 33.4555 80.9328 33.4561C80.9631 33.5167 80.9044 33.3994 80.9347 33.4599C80.935 33.4605 80.9353 33.4612 80.9356 33.4618C80.9359 33.4624 80.9362 33.4631 80.9366 33.4637C80.9717 33.534 80.9052 33.4009 80.9403 33.4712C80.9406 33.4718 80.9409 33.4725 80.9413 33.4731C80.9416 33.4737 80.9419 33.4743 80.9422 33.475C80.9425 33.4756 80.9428 33.4762 80.9431 33.4768C80.9434 33.4774 80.9438 33.4781 80.9441 33.4787C80.9444 33.4793 80.9447 33.4799 80.945 33.4806C80.9453 33.4812 80.9456 33.4818 80.9459 33.4824C80.9462 33.483 80.9465 33.4837 80.9469 33.4843C80.9472 33.4849 80.9475 33.4855 80.9478 33.4861C80.9481 33.4868 80.9484 33.4874 80.9487 33.488C80.949 33.4886 80.9493 33.4892 80.9496 33.4898C80.9499 33.4905 80.9503 33.4911 80.9506 33.4917C80.9509 33.4923 80.9512 33.4929 80.9515 33.4935C80.9518 33.4942 80.9521 33.4948 80.9524 33.4954C80.9527 33.496 80.953 33.4966 80.9533 33.4972C80.9536 33.4978 80.9539 33.4985 80.9542 33.4991C80.9546 33.4997 80.9549 33.5003 80.9552 33.5009C80.9555 33.5015 80.9558 33.5021 80.9561 33.5027C80.9564 33.5033 80.9567 33.504 80.957 33.5046C80.9573 33.5052 80.9576 33.5058 80.9579 33.5064C80.9582 33.507 80.9585 33.5076 80.9588 33.5082C80.9591 33.5088 80.9594 33.5094 80.9597 33.51C80.96 33.5107 80.9603 33.5113 80.9607 33.5119C80.961 33.5125 80.9613 33.5131 80.9616 33.5137C80.9619 33.5143 80.9622 33.5149 80.9625 33.5155C80.9628 33.5161 80.9631 33.5167 80.9634 33.5173C80.9637 33.5179 80.964 33.5185 80.9643 33.5191C80.9646 33.5197 80.9649 33.5203 80.9652 33.5209C80.9655 33.5216 80.9658 33.5222 80.9661 33.5228C80.9664 33.5234 80.9667 33.524 80.967 33.5246C80.9673 33.5252 80.9676 33.5258 80.9679 33.5264C80.9682 33.527 80.9685 33.5276 80.9688 33.5282C80.9691 33.5288 80.9694 33.5294 80.9697 33.53C80.97 33.5306 80.9703 33.5312 80.9706 33.5318C80.9709 33.5324 80.9712 33.533 80.9715 33.5336C80.9718 33.5341 80.9721 33.5347 80.9724 33.5353C80.9727 33.5359 80.973 33.5365 80.9733 33.5371C80.9736 33.5377 80.9739 33.5383 80.9742 33.5389C80.9745 33.5395 80.9748 33.5401 80.9751 33.5407C80.9754 33.5413 80.9757 33.5419 80.976 33.5425C80.9763 33.5431 80.9765 33.5437 80.9768 33.5443C80.9771 33.5449 80.9774 33.5454 80.9777 33.546C80.978 33.5466 80.9783 33.5472 80.9786 33.5478C80.9789 33.5484 80.9792 33.549 80.9795 33.5496C80.9798 33.5502 80.9801 33.5508 80.9804 33.5513C80.9807 33.5519 80.981 33.5525 80.9813 33.5531C80.9816 33.5537 80.9819 33.5543 80.9822 33.5549C80.9825 33.5555 80.9827 33.5561 80.983 33.5566C80.9833 33.5572 80.9836 33.5578 80.9839 33.5584C80.9842 33.559 80.9845 33.5596 80.9848 33.5602C80.9851 33.5607 80.9854 33.5613 80.9857 33.5619C80.986 33.5625 80.9863 33.5631 80.9865 33.5637C80.9868 33.5642 80.9871 33.5648 80.9874 33.5654C80.9877 33.566 80.988 33.5666 80.9883 33.5672C80.9886 33.5677 80.9889 33.5683 80.9892 33.5689C80.9895 33.5695 80.9897 33.5701 80.99 33.5706C80.9903 33.5712 80.9906 33.5718 80.9909 33.5724C80.9912 33.573 80.9915 33.5735 80.9918 33.5741C80.9921 33.5747 80.9924 33.5753 80.9926 33.5759C80.9929 33.5764 80.9932 33.577 80.9935 33.5776C80.9938 33.5782 80.9941 33.5787 80.9944 33.5793C80.9947 33.5799 80.995 33.5805 80.9952 33.581C80.9955 33.5816 80.9958 33.5822 80.9961 33.5828C80.9964 33.5833 80.9967 33.5839 80.997 33.5845C80.9972 33.5851 80.9975 33.5856 80.9978 33.5862C80.9981 33.5868 80.9984 33.5874 80.9987 33.5879C80.999 33.5885 80.9993 33.5891 80.9995 33.5896C80.9998 33.5902 81.0001 33.5908 81.0004 33.5914C81.0007 33.5919 81.001 33.5925 81.0013 33.5931C81.0015 33.5936 81.0018 33.5942 81.0021 33.5948C81.0024 33.5953 81.0027 33.5959 81.003 33.5965C81.0032 33.597 81.0035 33.5976 81.0038 33.5982C81.0041 33.5988 81.0044 33.5993 81.0047 33.5999C81.0049 33.6005 81.0052 33.601 81.0055 33.6016C81.0058 33.6021 81.0061 33.6027 81.0064 33.6033C81.0066 33.6038 81.0069 33.6044 81.0072 33.605C81.0075 33.6055 81.0078 33.6061 81.008 33.6067C81.0083 33.6072 81.0086 33.6078 81.0089 33.6084C81.0092 33.6089 81.0095 33.6095 81.0097 33.61C81.01 33.6106 81.0103 33.6112 81.0106 33.6117C81.0109 33.6123 81.0111 33.6128 81.0114 33.6134C81.0117 33.614 81.012 33.6145 81.0123 33.6151C81.0125 33.6156 81.0128 33.6162 81.0131 33.6168C81.0142 33.619 81.0137 33.6179 81.0148 33.6201C81.015 33.6207 81.0153 33.6212 81.0156 33.6218C81.0159 33.6223 81.0162 33.6229 81.0164 33.6234C81.0167 33.624 81.017 33.6245 81.0173 33.6251C81.0175 33.6257 81.0178 33.6262 81.0181 33.6268C81.0225 33.6356 81.0153 33.6212 81.0198 33.6301C81.02 33.6306 81.0203 33.6312 81.0206 33.6317C81.0209 33.6323 81.0211 33.6328 81.0214 33.6334C81.0217 33.6339 81.022 33.6345 81.0222 33.635C81.0225 33.6356 81.0228 33.6361 81.0231 33.6367C81.0307 33.652 81.017 33.6246 81.0247 33.64C81.025 33.6405 81.0252 33.6411 81.0255 33.6416C81.0258 33.6421 81.0261 33.6427 81.0263 33.6432C81.0266 33.6438 81.0269 33.6443 81.0272 33.6449C81.0274 33.6454 81.0277 33.646 81.028 33.6465C81.0378 33.6661 81.0198 33.6302 81.0296 33.6498C81.0299 33.6503 81.0301 33.6508 81.0304 33.6514C81.0307 33.6519 81.031 33.6525 81.0312 33.653C81.0315 33.6536 81.0318 33.6541 81.032 33.6546C81.0323 33.6552 81.0326 33.6557 81.0328 33.6562C81.0452 33.6811 81.0221 33.6347 81.0345 33.6595C81.0347 33.66 81.035 33.6605 81.0353 33.6611C81.0355 33.6616 81.0358 33.6622 81.0361 33.6627C81.0363 33.6632 81.0366 33.6638 81.0369 33.6643C81.0371 33.6648 81.0374 33.6654 81.0377 33.6659C81.0547 33.7 81.0222 33.635 81.0393 33.6691C81.0395 33.6696 81.0398 33.6702 81.0401 33.6707C81.0403 33.6712 81.0406 33.6718 81.0409 33.6723C81.0411 33.6728 81.0414 33.6733 81.0417 33.6739C81.0419 33.6744 81.0422 33.6749 81.0424 33.6755C81.0615 33.7135 81.025 33.6406 81.044 33.6786C81.0443 33.6792 81.0446 33.6797 81.0448 33.6802C81.0451 33.6807 81.0454 33.6813 81.0456 33.6818C81.0459 33.6823 81.0461 33.6828 81.0464 33.6834C81.0467 33.6839 81.0469 33.6844 81.0472 33.6849C81.0697 33.73 81.0262 33.643 81.0488 33.6881C81.049 33.6886 81.0493 33.6891 81.0495 33.6896C81.0498 33.6902 81.0501 33.6907 81.0503 33.6912C81.0506 33.6917 81.0508 33.6923 81.0511 33.6928C81.0514 33.6933 81.0516 33.6938 81.0519 33.6943C81.0778 33.7461 81.0275 33.6456 81.0534 33.6974C81.0537 33.698 81.054 33.6985 81.0542 33.699C81.0545 33.6995 81.0547 33.7 81.055 33.7005C81.0552 33.7011 81.0555 33.7016 81.0558 33.7021C81.056 33.7026 81.0563 33.7031 81.0565 33.7036C81.0848 33.7602 81.0298 33.6501 81.0581 33.7067C81.0583 33.7072 81.0586 33.7077 81.0588 33.7083C81.0591 33.7088 81.0594 33.7093 81.0596 33.7098C81.0599 33.7103 81.0601 33.7108 81.0604 33.7113C81.0606 33.7118 81.0609 33.7123 81.0611 33.7128C81.0943 33.7791 81.0295 33.6496 81.0627 33.7159C81.0936 33.7777 81.0333 33.6571 81.0642 33.7189C81.0644 33.7194 81.0647 33.72 81.0649 33.7205C81.0652 33.721 81.0655 33.7215 81.0657 33.722C81.1001 33.7907 81.0329 33.6563 81.0672 33.725C81.0943 33.7791 81.0417 33.6739 81.0687 33.728C81.069 33.7285 81.0692 33.729 81.0695 33.7295C81.0697 33.73 81.07 33.7305 81.0702 33.731C81.0705 33.7315 81.0707 33.732 81.071 33.7325C81.0712 33.733 81.0715 33.7335 81.0717 33.734C81.0956 33.7817 81.0493 33.6892 81.0732 33.737C81.0735 33.7375 81.0737 33.738 81.074 33.7385C81.0742 33.739 81.0745 33.7395 81.0747 33.74C81.0749 33.7405 81.0752 33.741 81.0754 33.7414C81.0757 33.7419 81.0759 33.7424 81.0762 33.7429C81.0969 33.7843 81.057 33.7045 81.0777 33.7459C81.0779 33.7464 81.0781 33.7469 81.0784 33.7474C81.0786 33.7478 81.0789 33.7483 81.0791 33.7488C81.0794 33.7493 81.0796 33.7498 81.0799 33.7503C81.0801 33.7508 81.0804 33.7513 81.0806 33.7518C81.0976 33.7858 81.065 33.7206 81.0821 33.7547C81.0823 33.7552 81.0825 33.7557 81.0828 33.7561C81.083 33.7566 81.0833 33.7571 81.0835 33.7576C81.0838 33.7581 81.084 33.7586 81.0842 33.7591C81.0845 33.7595 81.0847 33.76 81.085 33.7605C81.0975 33.7856 81.0739 33.7383 81.0864 33.7634C81.0867 33.7639 81.0869 33.7644 81.0871 33.7648C81.0874 33.7653 81.0876 33.7658 81.0879 33.7663C81.0881 33.7668 81.0883 33.7672 81.0886 33.7677C81.0888 33.7682 81.0891 33.7687 81.0893 33.7692C81.0983 33.7873 81.0817 33.7539 81.0907 33.772C81.091 33.7725 81.0912 33.773 81.0914 33.7735C81.0917 33.7739 81.0919 33.7744 81.0922 33.7749C81.0924 33.7754 81.0926 33.7758 81.0929 33.7763C81.0931 33.7768 81.0933 33.7773 81.0936 33.7777C81.0983 33.7872 81.0903 33.7711 81.095 33.7806C81.0952 33.781 81.0955 33.7815 81.0957 33.782C81.0959 33.7825 81.0962 33.7829 81.0964 33.7834C81.0966 33.7839 81.0969 33.7843 81.0971 33.7848C81.0974 33.7853 81.0976 33.7857 81.0978 33.7862C81.0997 33.79 81.0974 33.7853 81.0992 33.789C81.0995 33.7895 81.0997 33.79 81.0999 33.7904C81.1002 33.7909 81.1004 33.7914 81.1006 33.7918C81.1016 33.7937 81.1025 33.7955 81.1034 33.7974C81.1043 33.7992 81.1039 33.7983 81.1048 33.8002C81.1089 33.8084 81.102 33.7946 81.1062 33.8029C81.1064 33.8034 81.1066 33.8038 81.1069 33.8043C81.1071 33.8047 81.1073 33.8052 81.1075 33.8057C81.1078 33.8061 81.108 33.8066 81.1082 33.807C81.1085 33.8075 81.1087 33.8079 81.1089 33.8084C81.1171 33.8248 81.1021 33.7947 81.1103 33.8111C81.1105 33.8116 81.1107 33.812 81.111 33.8125C81.1112 33.8129 81.1114 33.8134 81.1116 33.8138C81.1119 33.8143 81.1121 33.8148 81.1123 33.8152C81.1125 33.8157 81.1128 33.8161 81.113 33.8166C81.1247 33.84 81.1026 33.7958 81.1143 33.8193C81.1146 33.8197 81.1148 33.8202 81.115 33.8206C81.1152 33.8211 81.1155 33.8215 81.1157 33.822C81.1159 33.8224 81.1161 33.8228 81.1164 33.8233C81.1166 33.8237 81.1168 33.8242 81.117 33.8246C81.1313 33.8532 81.1041 33.7988 81.1184 33.8273C81.1186 33.8277 81.1188 33.8282 81.119 33.8286C81.1193 33.8291 81.1195 33.8295 81.1197 33.83C81.1199 33.8304 81.1201 33.8308 81.1204 33.8313C81.1206 33.8317 81.1208 33.8322 81.121 33.8326C81.1413 33.8732 81.1021 33.7947 81.1223 33.8353C81.1226 33.8357 81.1228 33.8361 81.123 33.8366C81.1232 33.837 81.1234 33.8375 81.1237 33.8379C81.1239 33.8383 81.1241 33.8388 81.1243 33.8392C81.1245 33.8396 81.1248 33.8401 81.125 33.8405C81.1489 33.8885 81.1023 33.7952 81.1263 33.8431C81.1566 33.9037 81.0973 33.7852 81.1276 33.8457C81.1278 33.8462 81.128 33.8466 81.1282 33.847C81.1284 33.8475 81.1287 33.8479 81.1289 33.8483C81.1556 33.9018 81.1034 33.7974 81.1302 33.8509C81.1558 33.9023 81.1058 33.8021 81.1315 33.8535C81.1317 33.8539 81.1319 33.8543 81.1321 33.8548C81.1323 33.8552 81.1325 33.8556 81.1327 33.856C81.1329 33.8565 81.1332 33.8569 81.1334 33.8573C81.1336 33.8577 81.1338 33.8582 81.134 33.8586C81.1556 33.9018 81.1137 33.818 81.1353 33.8611C81.1355 33.8616 81.1357 33.862 81.1359 33.8624C81.1361 33.8628 81.1363 33.8632 81.1366 33.8637C81.1711 33.9329 81.1032 33.797 81.1378 33.8662C81.155 33.9005 81.1219 33.8344 81.1391 33.8687C81.1393 33.8691 81.1395 33.8695 81.1397 33.87C81.1399 33.8704 81.1401 33.8708 81.1403 33.8712L82.9292 32.9768ZM82.4558 32.0302L80.7918 28.5742L78.9897 29.4418L80.6537 32.8978L82.4558 32.0302ZM79.8908 28.008H71.0268V30.008H79.8908V28.008ZM70.1257 28.5742L68.4617 32.0302L70.2638 32.8978L71.9278 29.4418L70.1257 28.5742ZM68.4683 32.0168C68.2583 32.4367 68.1104 32.6997 68.0187 32.8373L69.6828 33.9467C69.8471 33.7003 70.0405 33.3446 70.2572 32.9112L68.4683 32.0168ZM67.9766 32.9064C67.9639 32.9292 67.891 33.0335 67.665 33.2074L68.8845 34.7926C69.2131 34.5398 69.5243 34.2388 69.7249 33.8776L67.9766 32.9064ZM67.6748 33.2C67.6415 33.2249 67.5327 33.288 67.2508 33.288V35.288C67.8222 35.288 68.396 35.1591 68.8748 34.8L67.6748 33.2ZM67.2508 33.288C67.0903 33.288 66.7006 33.1989 66.002 32.8496L65.1075 34.6384C65.8595 35.0144 66.6006 35.288 67.2508 35.288V33.288ZM65.9895 32.8434C64.8151 32.2765 64.6988 31.8436 64.6988 31.696H62.6988C62.6988 33.0844 63.8197 34.0168 65.12 34.6446L65.9895 32.8434ZM64.6988 31.696C64.6988 31.5882 64.7784 31.2287 65.1372 30.5112L63.3483 29.6168C62.9817 30.35 62.6988 31.0785 62.6988 31.696H64.6988ZM65.1432 30.4989L73.7832 12.6109L71.9823 11.7411L63.3423 29.6291L65.1432 30.4989ZM73.7849 12.6075C73.9369 12.2897 74.1604 12.0362 74.4756 11.8357L73.4019 10.1483C72.7784 10.5451 72.298 11.081 71.9806 11.7445L73.7849 12.6075ZM74.4587 11.8462C74.8052 11.6353 75.139 11.544 75.4748 11.544V9.544C74.7439 9.544 74.0536 9.7514 73.4188 10.1378L74.4587 11.8462ZM75.4748 11.544C75.8836 11.544 76.19 11.64 76.4338 11.7984C76.6817 11.9596 76.9252 12.225 77.1403 12.6552L78.9292 11.7608C78.5896 11.0817 78.1291 10.515 77.5237 10.1216C76.9141 9.72532 76.2179 9.544 75.4748 9.544V11.544ZM74.5418 19.454L72.4298 23.838L74.2317 24.706L76.3437 20.322L74.5418 19.454ZM73.3308 25.272H77.5868V23.272H73.3308V25.272ZM78.4851 23.8327L76.3411 19.4487L74.5444 20.3273L76.6884 24.7113L78.4851 23.8327ZM106.92 30.032L107.843 29.6474L107.838 29.6374L107.834 29.6275L106.92 30.032ZM105.416 33.744L105.029 32.8218L105.022 32.8248L105.015 32.8278L105.416 33.744ZM102.728 33.904L102.087 34.6722L102.122 34.7008L102.158 34.7262L102.728 33.904ZM102.152 33.264L101.267 33.7297L101.28 33.7545L101.294 33.7785L102.152 33.264ZM99.6555 27.472L100.578 27.085L100.302 26.4282L99.5911 26.4741L99.6555 27.472ZM98.6635 27.536V28.536H98.6957L98.7279 28.5339L98.6635 27.536ZM94.6315 27.536V26.536H93.6315V27.536H94.6315ZM94.5675 32.272L93.5811 32.1076L93.575 32.1444L93.5716 32.1815L94.5675 32.272ZM94.2795 33.104L93.3971 32.6334L93.3917 32.6437L94.2795 33.104ZM89.1595 32.784L90.1107 32.4755L90.1068 32.4633L90.1025 32.4512L89.1595 32.784ZM88.9995 12.272L88.0131 12.1076L88.007 12.1444L88.0036 12.1815L88.9995 12.272ZM89.3195 11.408L90.2019 11.8786L90.2073 11.8683L89.3195 11.408ZM104.2 12.592L104.812 11.8016L104.81 11.8001L104.2 12.592ZM106.312 15.28L105.414 15.7204L105.414 15.7204L106.312 15.28ZM104.744 25.008L104.046 24.2914L103.56 24.7647L103.82 25.3914L104.744 25.008ZM94.6315 21.872H93.6315V22.872H94.6315V21.872ZM100.584 21.168L99.9791 20.3713L99.9791 20.3713L100.584 21.168ZM100.584 16.944L99.9621 17.7275L99.9705 17.7342L99.9791 17.7407L100.584 16.944ZM94.6315 16.208V15.208H93.6315V16.208H94.6315ZM105.996 30.4166C106.318 31.1892 106.4 31.5764 106.4 31.696H108.4C108.4 31.133 108.161 30.4108 107.843 29.6474L105.996 30.4166ZM106.4 31.696C106.4 31.853 106.285 32.295 105.029 32.8218L105.802 34.6662C107.191 34.0837 108.4 33.1603 108.4 31.696H106.4ZM105.015 32.8278C104.378 33.1064 103.973 33.192 103.752 33.192V35.192C104.383 35.192 105.088 34.9789 105.816 34.6602L105.015 32.8278ZM103.752 33.192C103.508 33.192 103.375 33.1363 103.297 33.0818L102.158 34.7262C102.634 35.0557 103.185 35.192 103.752 35.192V33.192ZM103.368 33.1358C103.17 32.9714 103.063 32.8402 103.009 32.7495L101.294 33.7785C101.496 34.1144 101.773 34.4099 102.087 34.6722L103.368 33.1358ZM103.036 32.7983C102.849 32.4431 102.041 30.5725 100.578 27.085L98.7334 27.859C100.171 31.2835 101.027 33.2742 101.267 33.7297L103.036 32.7983ZM99.5911 26.4741L98.5991 26.5381L98.7279 28.5339L99.7199 28.4699L99.5911 26.4741ZM98.6635 26.536H94.6315V28.536H98.6635V26.536ZM93.6315 27.536V31.152H95.6315V27.536H93.6315ZM93.6315 31.152C93.6315 31.6269 93.61 31.9344 93.5811 32.1076L95.5539 32.4364C95.6104 32.0976 95.6315 31.6584 95.6315 31.152H93.6315ZM93.5716 32.1815C93.5671 32.2312 93.5354 32.3743 93.3971 32.6334L95.1619 33.5746C95.365 33.1937 95.5252 32.7822 95.5634 32.3625L93.5716 32.1815ZM93.3917 32.6437C93.3912 32.6448 93.3841 32.6601 93.3483 32.6874C93.3091 32.7174 93.2346 32.762 93.1044 32.807C92.835 32.9003 92.4092 32.968 91.7835 32.968V34.968C92.5231 34.968 93.196 34.8917 93.7586 34.697C94.3287 34.4997 94.8632 34.1508 95.1673 33.5643L93.3917 32.6437ZM91.7835 32.968C91.1079 32.968 90.675 32.8761 90.4188 32.7605C90.1942 32.6592 90.1379 32.5592 90.1107 32.4755L88.2083 33.0925C88.6868 34.5678 90.2392 34.968 91.7835 34.968V32.968ZM90.1025 32.4512C90.0329 32.2541 89.9675 31.8392 89.9675 31.12H87.9675C87.9675 31.8941 88.0301 32.5886 88.2165 33.1168L90.1025 32.4512ZM89.9675 31.12V13.36H87.9675V31.12H89.9675ZM89.9675 13.36C89.9675 12.8746 89.9784 12.5496 89.9954 12.3625L88.0036 12.1815C87.978 12.4637 87.9675 12.8641 87.9675 13.36H89.9675ZM89.9859 12.4364C90.0052 12.3206 90.0636 12.1379 90.2019 11.8786L88.4371 10.9374C88.2341 11.3181 88.0791 11.7114 88.0131 12.1076L89.9859 12.4364ZM90.2073 11.8683C90.2078 11.8672 90.2149 11.8519 90.2507 11.8246C90.2899 11.7946 90.3644 11.75 90.4946 11.705C90.764 11.6117 91.1898 11.544 91.8155 11.544V9.544C91.0759 9.544 90.403 9.62027 89.8404 9.81501C89.2703 10.0123 88.7358 10.3612 88.4317 10.9477L90.2073 11.8683ZM91.8155 11.544H98.7275V9.544H91.8155V11.544ZM98.7275 11.544C100.344 11.544 101.959 12.1268 103.589 13.3839L104.81 11.8001C102.899 10.3265 100.866 9.544 98.7275 9.544V11.544ZM103.587 13.3824C104.301 13.936 104.915 14.7039 105.414 15.7204L107.209 14.8396C106.599 13.5948 105.804 12.5707 104.812 11.8016L103.587 13.3824ZM105.414 15.7204C105.895 16.7006 106.144 17.8064 106.144 19.056H108.144C108.144 17.5323 107.838 16.1207 107.209 14.8396L105.414 15.7204ZM106.144 19.056C106.144 21.2206 105.436 22.9383 104.046 24.2914L105.441 25.7246C107.251 23.963 108.144 21.7127 108.144 19.056H106.144ZM103.82 25.3914C104.294 26.533 105.023 28.2162 106.005 30.4365L107.834 29.6275C106.853 27.4105 106.132 25.7443 105.667 24.6246L103.82 25.3914ZM94.6315 22.872H98.7275V20.872H94.6315V22.872ZM98.7275 22.872C99.6149 22.872 100.44 22.5318 101.188 21.9647L99.9791 20.3713C99.4893 20.7429 99.0774 20.872 98.7275 20.872V22.872ZM101.188 21.9647C102.109 21.2661 102.512 20.2344 102.512 19.056H100.512C100.512 19.7549 100.296 20.1312 99.9791 20.3713L101.188 21.9647ZM102.512 19.056C102.512 17.8776 102.109 16.8459 101.188 16.1473L99.9791 17.7407C100.296 17.9808 100.512 18.3571 100.512 19.056H102.512ZM101.205 16.1605C100.445 15.5578 99.592 15.208 98.6635 15.208V17.208C99.0577 17.208 99.4846 17.3488 99.9621 17.7275L101.205 16.1605ZM98.6635 15.208H94.6315V17.208H98.6635V15.208ZM93.6315 16.208V21.872H95.6315V16.208H93.6315ZM109.195 30.704L108.418 31.3346L108.421 31.3372L109.195 30.704ZM109.739 26.704L109.046 25.9826L109.04 25.9886L109.739 26.704ZM113.931 27.536L114.702 26.9003L114.672 26.863L114.638 26.8289L113.931 27.536ZM115.211 28.592L114.686 29.4437L114.698 29.4511L114.711 29.4582L115.211 28.592ZM118.891 25.424L118.351 26.2663L118.371 26.2787L118.391 26.2902L118.891 25.424ZM116.875 24.688L116.693 25.6715L116.693 25.6715L116.875 24.688ZM114.251 23.984L113.909 24.9238L113.918 24.9272L113.928 24.9305L114.251 23.984ZM109.579 20.688L108.7 21.1655L108.706 21.177L108.713 21.1883L109.579 20.688ZM110.859 12.272L111.566 12.9791L111.566 12.9791L110.859 12.272ZM120.075 10.672L119.764 11.6226L119.776 11.6264L119.787 11.6298L120.075 10.672ZM122.283 11.664L121.638 12.4289L121.657 12.445L121.677 12.4602L122.283 11.664ZM123.083 12.272L123.766 11.5417L123.728 11.5068L123.688 11.4758L123.083 12.272ZM123.307 15.6L122.482 15.0345L122.48 15.0377L123.307 15.6ZM119.403 16.56L118.848 17.392L118.854 17.3962L118.86 17.4003L119.403 16.56ZM119.019 16.24L118.311 16.9471L118.332 16.9679L118.354 16.9874L119.019 16.24ZM118.539 15.824L119.12 15.0103L119.093 14.9911L119.065 14.9737L118.539 15.824ZM115.083 15.92L115.664 16.7338L115.671 16.7287L115.083 15.92ZM115.211 18.704L114.648 19.5309L114.656 19.536L114.663 19.541L115.211 18.704ZM117.259 19.44L117.103 20.4278L117.103 20.4278L117.259 19.44ZM119.915 20.048L119.637 21.0087L119.647 21.0116L119.657 21.0142L119.915 20.048ZM122.571 21.008L122.142 21.9117L122.142 21.9117L122.571 21.008ZM124.587 23.024L123.712 23.5096L123.719 23.5213L123.726 23.5327L124.587 23.024ZM124.587 30.192L125.47 30.6607L125.474 30.6534L124.587 30.192ZM122.411 32.624L121.87 31.7828L121.863 31.7872L122.411 32.624ZM114.027 33.968L113.752 34.9295L113.762 34.9326L113.773 34.9354L114.027 33.968ZM111.851 33.04L112.398 32.203L112.383 32.1932L112.367 32.1839L111.851 33.04ZM109.483 31.056L110.302 30.4825L110.28 30.4518L110.256 30.4228L109.483 31.056ZM109.971 30.0734C109.474 29.4622 109.363 29.076 109.363 28.88H107.363C107.363 29.7506 107.806 30.5805 108.418 31.3346L109.971 30.0734ZM109.363 28.88C109.363 28.8688 109.372 28.7379 109.552 28.4545C109.724 28.1813 110.01 27.8369 110.437 27.4194L109.04 25.9886C108.55 26.4671 108.147 26.9333 107.861 27.3855C107.582 27.8274 107.363 28.3365 107.363 28.88H109.363ZM110.431 27.4254C110.825 27.0474 111.153 26.936 111.435 26.936V24.936C110.521 24.936 109.719 25.3366 109.046 25.9826L110.431 27.4254ZM111.435 26.936C111.454 26.936 111.617 26.9538 111.967 27.1779C112.3 27.3912 112.717 27.737 113.223 28.2431L114.638 26.8289C114.077 26.2683 113.545 25.8142 113.046 25.4941C112.564 25.1849 112.012 24.936 111.435 24.936V26.936ZM113.159 28.1717C113.549 28.6454 114.071 29.0651 114.686 29.4437L115.735 27.7403C115.24 27.4362 114.91 27.1519 114.702 26.9003L113.159 28.1717ZM114.711 29.4582C115.364 29.8352 116.049 30.072 116.747 30.072V28.072C116.505 28.072 116.166 27.9888 115.71 27.7258L114.711 29.4582ZM116.747 30.072C117.849 30.072 118.862 29.8508 119.611 29.2383C120.399 28.5943 120.723 27.6641 120.723 26.64H118.723C118.723 27.2372 118.55 27.5231 118.346 27.6897C118.103 27.8879 117.628 28.072 116.747 28.072V30.072ZM120.723 26.64C120.723 25.6824 120.146 24.9939 119.39 24.5578L118.391 26.2902C118.576 26.3972 118.657 26.4853 118.689 26.5327C118.714 26.5692 118.723 26.5964 118.723 26.64H120.723ZM119.43 24.5817C118.76 24.153 117.957 23.8706 117.056 23.7045L116.693 25.6715C117.413 25.8041 117.955 26.0123 118.351 26.2663L119.43 24.5817ZM117.056 23.7045C116.301 23.5656 115.475 23.3448 114.573 23.0375L113.928 24.9305C114.904 25.2632 115.826 25.5117 116.693 25.6715L117.056 23.7045ZM114.592 23.0442C113.699 22.7193 112.872 22.3457 112.11 21.9248L111.143 23.6752C112.002 24.1503 112.925 24.566 113.909 24.9238L114.592 23.0442ZM112.11 21.9248C111.487 21.5806 110.926 21.0215 110.444 20.1877L108.713 21.1883C109.34 22.2745 110.144 23.1234 111.143 23.6752L112.11 21.9248ZM110.457 20.2105C110.019 19.4049 109.779 18.4033 109.779 17.168H107.779C107.779 18.6634 108.071 20.0084 108.7 21.1655L110.457 20.2105ZM109.779 17.168C109.779 15.5688 110.357 14.1876 111.566 12.9791L110.151 11.5649C108.587 13.1298 107.779 15.0126 107.779 17.168H109.779ZM111.566 12.9791C112.748 11.797 114.381 11.16 116.587 11.16V9.16C113.97 9.16 111.785 9.93102 110.151 11.5649L111.566 12.9791ZM116.587 11.16C117.778 11.16 118.834 11.3189 119.764 11.6226L120.385 9.72139C119.224 9.34247 117.955 9.16 116.587 9.16V11.16ZM119.787 11.6298C120.836 11.9444 121.4 12.2285 121.638 12.4289L122.927 10.8991C122.354 10.4168 121.447 10.0396 120.362 9.71417L119.787 11.6298ZM121.677 12.4602L122.477 13.0682L123.688 11.4758L122.888 10.8678L121.677 12.4602ZM122.399 13.0023C122.694 13.2778 122.877 13.4979 122.981 13.6626C123.089 13.832 123.075 13.8829 123.075 13.84H125.075C125.075 13.3704 124.895 12.9466 124.672 12.5934C124.445 12.2354 124.132 11.8849 123.766 11.5417L122.399 13.0023ZM123.075 13.84C123.075 13.9379 122.983 14.304 122.482 15.0345L124.131 16.1655C124.654 15.4026 125.075 14.5954 125.075 13.84H123.075ZM122.48 15.0377C121.813 16.0175 121.328 16.2 121.067 16.2V18.2C122.341 18.2 123.349 17.3159 124.133 16.1623L122.48 15.0377ZM121.067 16.2C120.907 16.2 120.551 16.1112 119.945 15.7197L118.86 17.4003C119.576 17.8622 120.33 18.2 121.067 18.2V16.2ZM119.957 15.728C119.97 15.7362 119.971 15.7379 119.956 15.7266C119.944 15.7169 119.925 15.7017 119.899 15.6798C119.846 15.6358 119.775 15.5742 119.683 15.4926L118.354 16.9874C118.533 17.1466 118.715 17.3035 118.848 17.392L119.957 15.728ZM119.726 15.5329C119.527 15.3347 119.325 15.1571 119.12 15.0103L117.957 16.6377C118.05 16.7042 118.168 16.804 118.311 16.9471L119.726 15.5329ZM119.065 14.9737C118.414 14.5708 117.64 14.408 116.811 14.408V16.408C117.389 16.408 117.767 16.5225 118.012 16.6743L119.065 14.9737ZM116.811 14.408C115.955 14.408 115.163 14.6248 114.494 15.1113L115.671 16.7287C115.94 16.5325 116.301 16.408 116.811 16.408V14.408ZM114.501 15.1063C113.765 15.6319 113.411 16.4078 113.411 17.296H115.411C115.411 16.9895 115.504 16.8481 115.664 16.7337L114.501 15.1063ZM113.411 17.296C113.411 18.2469 113.879 19.0081 114.648 19.5309L115.773 17.8771C115.475 17.6745 115.411 17.4971 115.411 17.296H113.411ZM114.663 19.541C115.361 19.9971 116.185 20.2828 117.103 20.4278L117.414 18.4522C116.711 18.3412 116.169 18.1362 115.758 17.867L114.663 19.541ZM117.103 20.4278C117.864 20.5481 118.709 20.7405 119.637 21.0087L120.192 19.0873C119.2 18.8008 118.274 18.5879 117.414 18.4522L117.103 20.4278ZM119.657 21.0142C120.564 21.2563 121.392 21.5563 122.142 21.9117L122.999 20.1043C122.128 19.6917 121.185 19.3517 120.172 19.0818L119.657 21.0142ZM122.142 21.9117C122.726 22.1879 123.257 22.6906 123.712 23.5096L125.461 22.5384C124.849 21.4374 124.037 20.5961 122.999 20.1043L122.142 21.9117ZM123.726 23.5327C124.168 24.2807 124.419 25.2564 124.419 26.512H126.419C126.419 24.9943 126.115 23.6446 125.447 22.5153L123.726 23.5327ZM124.419 26.512C124.419 27.7628 124.169 28.8269 123.699 29.7306L125.474 30.6534C126.113 29.4237 126.419 28.0345 126.419 26.512H124.419ZM123.703 29.7233C123.22 30.6343 122.606 31.3095 121.87 31.7828L122.951 33.4652C124.007 32.7865 124.844 31.8403 125.47 30.6607L123.703 29.7233ZM121.863 31.7872C120.289 32.8172 118.632 33.32 116.875 33.32V35.32C119.042 35.32 121.076 34.6921 122.958 33.4608L121.863 31.7872ZM116.875 33.32C115.95 33.32 115.087 33.2119 114.28 33.0006L113.773 34.9354C114.758 35.1934 115.793 35.32 116.875 35.32V33.32ZM114.301 33.0065C113.466 32.7678 112.842 32.4934 112.398 32.203L111.303 33.877C111.968 34.3119 112.795 34.6562 113.752 34.9295L114.301 33.0065ZM112.367 32.1839C111.285 31.5303 110.633 30.9555 110.302 30.4825L108.663 31.6295C109.228 32.4365 110.155 33.1844 111.334 33.8961L112.367 32.1839ZM110.256 30.4228L109.968 30.0708L108.421 31.3372L108.709 31.6892L110.256 30.4228Z" fill="#005AC8" fill-opacity="0.15" mask="url(#path-1-outside-1_15_9)"/>
</g>
<defs>
<filter id="filter0_d_15_9" x="0.48" y="0.160004" width="134.939" height="44.16" filterUnits="userSpaceOnUse" color-interpolation-filters="sRGB">
<feFlood flood-opacity="0" result="BackgroundImageFix"/>
<feColorMatrix in="SourceAlpha" type="matrix" values="0 0 0 0 0 0 0 0 0 0 0 0 0 0 0 0 0 0 127 0" result="hardAlpha"/>
<feOffset/>
<feGaussianBlur stdDeviation="5"/>
<feComposite in2="hardAlpha" operator="out"/>
<feColorMatrix type="matrix" values="0 0 0 0 0 0 0 0 0 0 0 0 0 0 0 0 0 0 0.5 0"/>
<feBlend mode="normal" in2="BackgroundImageFix" result="effect1_dropShadow_15_9"/>
<feBlend mode="normal" in="SourceGraphic" in2="effect1_dropShadow_15_9" result="shape"/>
</filter>
</defs>
</svg>
